<?xml version="1.0" standalone="no"?>
<!DOCTYPE svg PUBLIC "-//W3C//DTD SVG 20010904//EN"
 "http://www.w3.org/TR/2001/REC-SVG-20010904/DTD/svg10.dtd">
<svg version="1.0" xmlns="http://www.w3.org/2000/svg"
 width="841.000000pt" height="297.000000pt" viewBox="0 0 841.000000 297.000000"
 preserveAspectRatio="xMidYMid meet">
<metadata>
Created by potrace 1.16, written by Peter Selinger 2001-2019
</metadata>
<g transform="translate(0.000000,297.000000) scale(0.100000,-0.100000)"
fill="#1877F2" stroke="none">
<path d="M3310 1773 c0 -494 -3 -1009 -7 -1145 l-6 -248 424 0 424 0 2 1145 2
1145 -420 0 -419 0 0 -897z"/>
<path d="M4550 1525 l0 -1145 423 0 422 0 1 1145 1 1145 -424 0 -423 0 0
-1145z"/>
<path d="M6530 2243 c-227 -25 -406 -110 -565 -268 -109 -108 -173 -202 -219
-321 -48 -124 -67 -229 -67 -359 0 -355 191 -673 500 -833 161 -84 276 -113
446 -113 246 -1 463 85 650 254 74 68 168 194 213 288 60 124 99 334 88 469
-30 353 -225 639 -544 799 -138 69 -338 102 -502 84z m285 -130 c271 -53 518
-277 605 -548 62 -195 61 -359 -5 -548 -103 -299 -396 -527 -707 -552 l-88 -7
0 834 c0 459 3 838 7 841 8 9 82 1 188 -20z"/>
<path d="M1665 2233 c-230 -20 -393 -90 -549 -235 -138 -127 -204 -229 -260
-398 -74 -223 -68 -423 19 -655 80 -213 249 -396 459 -500 149 -73 254 -98
411 -98 145 1 236 22 375 89 278 133 478 386 628 794 77 209 152 629 152 850
l0 67 -52 7 c-29 3 -146 6 -260 6 l-206 0 -6 -62 c-21 -248 -40 -405 -57 -476
-45 -196 -126 -399 -193 -484 -11 -15 -31 -41 -44 -57 -28 -37 -126 -112 -182
-141 -94 -48 -237 -45 -332 7 -80 43 -130 99 -163 183 -27 66 -30 86 -30 175
1 81 5 111 24 159 82 207 349 280 568 155 53 -30 138 -106 166 -148 9 -14 19
-22 23 -18 14 13 55 156 69 237 19 111 35 252 35 314 0 42 -4 53 -34 80 -42
40 -154 99 -226 120 -55 15 -230 37 -272 34 -13 -1 -41 -3 -63 -5z"/>
<path d="M2836 1168 c-65 -181 -86 -226 -157 -343 -66 -108 -159 -217 -252
-294 -68 -57 -77 -68 -77 -98 l0 -33 275 0 275 0 0 465 c0 256 -1 465 -3 465
-1 0 -29 -73 -61 -162z"/>
</g>
</svg>
