<svg width="170" height="54" viewBox="0 0 173 54" fill="none" xmlns="http://www.w3.org/2000/svg">
  <a href="#">
<path d="M167.071 53.894H5.3894C2.42523 53.894 0 51.4688 0 48.5046V5.3894C0 2.42523 2.42523 0 5.3894 0H167.071C170.036 0 172.461 2.42523 172.461 5.3894V48.5046C172.461 51.4688 170.036 53.894 167.071 53.894Z" fill="#212121" href="https://play.google.com/store/apps/details?id=com.vaibhavkalpe.android.khatabook&amp;referrer=singular_click_id%3Dc82d6c7b-e012-402f-be07-bc5cb38d0fdd"></path>
<path fill-rule="evenodd" clip-rule="evenodd" d="M33.3989 13.3894C34.4768 11.9073 35.2852 10.021 35.1505 8C33.5337 8.13473 31.3779 9.07788 30.3 10.56C29.2221 11.7726 28.279 13.7936 28.5485 15.6799C30.3 15.8146 32.1863 14.7367 33.3989 13.3894ZM37.576 25.7848C37.576 21.9848 40.4755 19.9692 41.1002 19.5349C41.1621 19.4919 41.2017 19.4644 41.2139 19.4522C39.1928 16.6228 36.2287 16.2186 35.1508 16.0838C33.5607 15.9165 31.9706 16.5288 30.7033 17.0169C29.9304 17.3145 29.2776 17.5659 28.8182 17.5659C28.2234 17.5659 27.4972 17.277 26.686 16.9543L26.686 16.9543C25.66 16.5461 24.4981 16.0838 23.2941 16.0838C20.4647 16.0838 17.9047 17.7007 16.4226 20.2606C13.4584 25.3806 15.6142 32.9257 18.4436 37.1025L18.5611 37.2627C20.0113 39.2425 21.5993 41.4105 23.6983 41.2793C24.6853 41.2176 25.3899 40.93 26.1095 40.6362C26.9615 40.2884 27.8346 39.9319 29.2224 39.9319C30.538 39.9319 31.3554 40.2878 32.1501 40.6337C32.9018 40.9609 33.6332 41.2793 34.7466 41.2793C37.0371 41.2793 38.5192 39.2583 39.8665 37.2372C41.4833 34.9467 42.157 32.6562 42.157 32.5215C42.1429 32.5074 42.0816 32.4771 41.9831 32.4284C41.1405 32.0115 37.576 30.2483 37.576 25.7848ZM65.3314 41.0097H68.2955L62.9061 23.6289H59.403L53.7441 41.0097H56.5736L58.0557 35.8898H63.7145L65.3314 41.0097ZM61.6935 29.153L63.1756 33.734H58.4599L59.942 29.153C60.3462 27.8057 60.6156 26.5931 60.7504 25.9194C61.1097 26.9973 61.3492 27.8955 61.5089 28.4943C61.5887 28.7937 61.6486 29.0183 61.6935 29.153ZM82.7121 34.6773C82.7121 36.833 82.1731 38.4499 80.9605 39.7972C79.8827 40.8751 78.67 41.414 77.0532 41.414C75.4364 41.414 74.2238 40.8751 73.5501 39.6625V46.2645H70.7207V32.791C70.7207 31.4436 70.7207 30.0963 70.5859 28.6142H73.0112L73.1459 30.6352C74.0891 29.1531 75.4364 28.3447 77.3227 28.3447C78.8048 28.3447 80.0174 28.8837 80.9605 30.0963C82.1731 31.1742 82.7121 32.6562 82.7121 34.6773ZM79.8827 34.6773C79.8827 33.4647 79.6132 32.3868 79.0742 31.7131C78.5353 30.9047 77.7269 30.5005 76.649 30.5005C75.9753 30.5005 75.3017 30.77 74.7627 31.1742C74.2238 31.5784 73.8196 32.252 73.6848 32.9257C73.5501 33.3299 73.5501 33.5994 73.5501 33.7341V35.8899C73.5501 36.833 73.8196 37.5067 74.3585 38.1804C74.8975 38.8541 75.7059 39.1235 76.5143 39.1235C77.5922 39.1235 78.4006 38.7193 78.9395 37.9109C79.6132 37.1025 79.8827 36.0246 79.8827 34.6773ZM95.3765 39.7972C96.5892 38.4499 97.1281 36.833 97.1281 34.6773C97.1281 32.6562 96.5892 31.1742 95.3765 30.0963C94.4334 28.8837 93.2208 28.3447 91.7387 28.3447C89.8524 28.3447 88.5051 29.1531 87.5619 30.6352L87.4272 28.6142H85.002C85.1367 30.0963 85.1367 31.4436 85.1367 32.791V46.2645H87.9661V39.6625C88.6398 40.8751 89.8524 41.414 91.4692 41.414C93.086 41.414 94.2987 40.8751 95.3765 39.7972ZM93.4902 31.7131C94.0292 32.3868 94.2987 33.4647 94.2987 34.6773C94.2987 36.0246 94.0292 37.1025 93.3555 37.9109C92.8166 38.7193 92.0082 39.1235 90.9303 39.1235C90.1219 39.1235 89.3135 38.8541 88.7745 38.1804C88.2356 37.5067 87.9661 36.833 87.9661 35.8899V33.7341C87.9661 33.5994 87.9661 33.3299 88.1009 32.9257C88.2356 32.252 88.6398 31.5784 89.1787 31.1742C89.7177 30.77 90.3913 30.5005 91.065 30.5005C92.1429 30.5005 92.9513 30.9047 93.4902 31.7131ZM113.297 36.1592C113.297 37.6413 112.758 38.8539 111.815 39.7971C110.737 40.875 109.121 41.2792 107.1 41.2792C105.213 41.2792 103.731 40.875 102.653 40.2013L103.327 37.9108C104.54 38.5845 105.887 38.9887 107.369 38.9887C108.447 38.9887 109.255 38.7192 109.794 38.315C110.333 37.776 110.603 37.2371 110.603 36.4287C110.603 35.755 110.333 35.0814 109.929 34.6771C109.39 34.1382 108.582 33.734 107.504 33.3298C104.405 32.2519 102.923 30.5004 102.923 28.3446C102.923 26.8625 103.462 25.7846 104.54 24.8415C105.617 23.8983 106.965 23.4941 108.851 23.4941C110.468 23.4941 111.681 23.7636 112.758 24.3026L112.085 26.5931C111.142 26.0541 110.064 25.7846 108.716 25.7846C107.773 25.7846 106.965 26.0541 106.426 26.4583C106.022 26.8625 105.752 27.4015 105.752 28.0751C105.752 28.7488 106.022 29.2877 106.561 29.8267C106.941 30.2068 107.797 30.5869 108.906 31.079L109.121 31.174C110.603 31.713 111.681 32.5214 112.489 33.3298C112.893 34.0035 113.297 34.9466 113.297 36.1592ZM119.36 30.6355H122.459V28.4798H119.36V25.3809L116.666 26.1893V28.4798H114.779V30.6355H116.666V36.9681C116.666 38.5849 116.935 39.6628 117.609 40.3364C118.148 41.0101 119.091 41.2796 120.169 41.2796C121.112 41.2796 121.786 41.2796 122.324 41.0101L122.19 38.8544C121.92 38.9891 121.516 38.9891 120.977 38.9891C119.899 38.9891 119.36 38.1807 119.36 36.6986V30.6355ZM136.336 34.6772C136.336 36.5635 135.797 38.1804 134.719 39.393C133.507 40.6056 132.025 41.2793 130.138 41.2793C128.252 41.2793 126.77 40.6056 125.692 39.393C124.614 38.1804 124.075 36.6983 124.075 34.812C124.075 32.9257 124.614 31.3089 125.827 30.0963C126.905 28.8836 128.521 28.21 130.408 28.21C132.294 28.21 133.776 28.8836 134.854 30.0963C135.797 31.3089 136.336 32.791 136.336 34.6772ZM133.372 34.812C133.372 33.5994 133.102 32.6562 132.564 31.8478C132.025 30.9047 131.081 30.3657 130.004 30.3657C128.926 30.3657 127.983 30.9047 127.444 31.8478C126.905 32.6562 126.635 33.7341 126.635 34.812C126.635 36.0246 126.905 36.9677 127.444 37.7761C127.983 38.7193 128.926 39.2582 130.004 39.2582C131.081 39.2582 131.89 38.7193 132.564 37.7761C133.102 36.9677 133.372 35.8899 133.372 34.812ZM145.229 30.8947C145.274 30.9009 145.319 30.9046 145.364 30.9046H145.229V30.8947ZM145.229 30.8947C145.151 30.8842 145.072 30.8663 144.988 30.8474C144.825 30.8107 144.643 30.7699 144.421 30.7699C143.477 30.7699 142.669 31.1741 142.13 31.8478C141.726 32.5214 141.456 33.3299 141.456 34.273V40.875H138.627V32.252V32.2515C138.627 30.7696 138.627 29.5571 138.492 28.3447H140.917L141.052 30.7699H141.187C141.456 29.9615 141.995 29.2878 142.534 28.7489C143.208 28.3447 143.882 28.0752 144.555 28.0752H145.229V30.8947ZM157.759 34.1383V34.1385C157.759 34.6773 157.759 35.0815 157.624 35.3509H149.271C149.271 36.5635 149.675 37.5067 150.483 38.1804C151.157 38.7193 152.1 39.1235 153.178 39.1235C154.391 39.1235 155.603 38.9888 156.547 38.5846L156.951 40.4708C155.738 41.0098 154.391 41.2793 152.774 41.2793C150.888 41.2793 149.271 40.7403 148.193 39.5277C147.115 38.4498 146.576 36.833 146.576 34.9467C146.576 33.0604 147.115 31.4436 148.058 30.231C149.136 28.8836 150.618 28.21 152.505 28.21C154.256 28.21 155.738 28.8836 156.547 30.231C157.49 31.3089 157.759 32.6562 157.759 34.1383ZM154.66 31.3089C155.042 31.9448 155.183 32.5807 155.198 33.3299H149.54C149.675 32.5215 149.945 31.7131 150.349 31.1741C150.888 30.5005 151.561 30.0963 152.505 30.0963C153.448 30.0963 154.121 30.5005 154.66 31.3089ZM61.0192 16.4885C61.9624 15.6801 62.3666 14.4675 62.3666 12.9854C62.3666 11.6381 61.8276 10.5602 61.1539 9.88651C60.3455 9.21283 59.2677 8.94336 57.7856 8.94336C56.8424 8.94336 56.034 8.94336 55.3604 9.07809V17.4317C55.8993 17.5664 56.573 17.5664 57.3814 17.5664C58.9982 17.5664 60.2108 17.1622 61.0192 16.4885ZM60.0761 10.6949C60.615 11.2339 60.8845 12.0423 60.8845 12.9854C60.8845 14.0633 60.615 15.0064 60.0761 15.5454C59.5371 16.0843 58.7287 16.3538 57.6508 16.3538H56.7077V10.0212C56.9772 9.88651 57.3814 9.88651 57.7856 9.88651C58.7287 9.88651 59.5371 10.156 60.0761 10.6949ZM69.9117 14.3323C69.9117 15.2754 69.6422 16.0838 69.1033 16.6228C68.5644 17.2964 67.756 17.5659 66.8128 17.5659C65.8697 17.5659 65.196 17.2964 64.6571 16.6228C64.1181 16.0838 63.8486 15.2754 63.8486 14.3323C63.8486 13.3891 64.1181 12.5807 64.6571 12.0418C65.196 11.3681 66.0044 11.0986 66.9475 11.0986C67.8907 11.0986 68.5644 11.3681 69.1033 12.0418C69.6422 12.5807 69.9117 13.3891 69.9117 14.3323ZM68.5644 14.3323C68.5644 13.7933 68.4296 13.2544 68.1602 12.8502C67.8907 12.3112 67.4865 12.1765 66.9475 12.1765C66.4086 12.1765 66.0044 12.446 65.7349 12.8502C65.4655 13.2544 65.3307 13.7933 65.3307 14.3323C65.3307 14.8712 65.4655 15.4102 65.7349 15.8144C66.0044 16.3533 66.4086 16.488 66.9475 16.488C67.4865 16.488 67.8907 16.2186 68.1602 15.6796C68.4296 15.4102 68.5644 14.8712 68.5644 14.3323ZM78.4007 17.4312L80.287 11.2334H78.6702L77.8618 14.0628L77.4576 16.0839C77.3228 15.4102 77.1881 14.7365 76.9186 14.0628L76.1102 11.2334H75.0323L74.2239 14.1976C74.0181 14.8152 73.8908 15.3541 73.7822 15.8145C73.7486 15.9567 73.7168 16.0914 73.685 16.2186L73.2808 14.1976L72.6071 11.2334H71.2598L73.2808 17.4312H74.4934L75.3018 14.7365C75.5713 14.0628 75.706 13.3892 75.8408 12.7155C75.9755 13.3892 76.1102 14.0628 76.3797 14.7365L77.1881 17.4312H78.4007ZM85.9454 17.4311V13.928C85.9454 12.8502 85.5412 12.3112 84.7328 12.3112C84.3286 12.3112 84.0591 12.446 83.7896 12.7154C83.5202 12.9849 83.3854 13.3891 83.3854 13.7933V17.4311H82.0381V12.9849V11.2333H83.2507V12.1765C83.3854 11.907 83.6549 11.6375 83.9244 11.3681C84.3286 11.0986 84.7328 10.9639 85.137 10.9639C85.6759 10.9639 86.2149 11.0986 86.6191 11.5028C87.158 11.907 87.2928 12.5807 87.2928 13.5238V17.4311H85.9454ZM89.7178 17.4315H91.0651V8.4043H89.7178V17.4315ZM99.149 14.3323C99.149 15.2754 98.8795 16.0838 98.3406 16.6228C97.8017 17.2964 96.9932 17.5659 96.0501 17.5659C95.107 17.5659 94.4333 17.2964 93.8943 16.6228C93.3554 16.0838 93.0859 15.2754 93.0859 14.3323C93.0859 13.3891 93.3554 12.5807 93.8943 12.0418C94.4333 11.5028 95.2417 11.0986 96.1848 11.0986C97.128 11.0986 97.8017 11.3681 98.3406 12.0418C98.8795 12.5807 99.149 13.3891 99.149 14.3323ZM97.8017 14.3323C97.8017 13.7933 97.6669 13.2544 97.3975 12.8502C97.128 12.3112 96.7238 12.1765 96.1848 12.1765C95.6459 12.1765 95.2417 12.446 94.9722 12.8502C94.7028 13.2544 94.568 13.7933 94.568 14.3323C94.568 14.8712 94.7028 15.4102 94.9722 15.8144C95.2417 16.3533 95.6459 16.488 96.1848 16.488C96.7238 16.488 97.128 16.2186 97.3975 15.6796C97.6669 15.4102 97.8017 14.8712 97.8017 14.3323ZM104.539 17.4312H105.752C105.752 17.027 105.752 16.6228 105.887 15.9491V13.6586C105.887 11.907 105.078 11.0986 103.461 11.0986C102.518 11.0986 101.844 11.2334 101.306 11.6376L101.575 12.5807C102.114 12.3112 102.518 12.1765 103.192 12.1765C104 12.1765 104.404 12.5807 104.404 13.3891V13.5239C103.192 13.5239 102.383 13.6586 101.71 14.0628C101.036 14.467 100.767 15.0059 100.767 15.8144C100.767 16.2186 101.036 16.6228 101.306 17.027C101.575 17.4312 102.114 17.5659 102.653 17.5659C103.327 17.5659 104 17.2964 104.404 16.7575L104.539 17.4312ZM104.404 14.3323V15.2754V15.5449C104.27 15.8144 104.135 16.0838 103.866 16.2186C103.596 16.3533 103.327 16.488 103.057 16.488C102.788 16.488 102.518 16.3533 102.383 16.2186C102.249 16.0838 102.114 15.8144 102.114 15.5449C102.114 14.7365 102.922 14.3323 104.404 14.3323ZM113.566 17.4316H112.353V16.4884C111.949 17.2968 111.276 17.5663 110.332 17.5663C109.524 17.5663 108.985 17.2968 108.446 16.7579C107.907 16.219 107.772 15.4105 107.772 14.4674C107.772 13.5243 108.042 12.7158 108.581 12.0422C109.12 11.5032 109.793 11.2338 110.467 11.2338C111.276 11.2338 111.815 11.5032 112.219 12.0422V8.53906H113.566V15.8148V17.4316ZM112.219 14.8716V13.7937V13.3895C112.084 13.1201 111.949 12.8506 111.68 12.5811C111.41 12.3116 111.141 12.3116 110.737 12.3116C110.198 12.3116 109.793 12.5811 109.524 12.9853C109.255 13.3895 109.12 13.9285 109.12 14.6021C109.12 15.2758 109.255 15.68 109.524 16.0842C109.793 16.4884 110.198 16.7579 110.737 16.7579C111.141 16.7579 111.545 16.6232 111.815 16.219C112.084 15.68 112.219 15.2758 112.219 14.8716ZM124.48 16.6228C125.019 16.0838 125.289 15.2754 125.289 14.3323C125.289 13.3891 125.019 12.5807 124.48 12.0418C123.941 11.3681 123.268 11.0986 122.324 11.0986C121.381 11.0986 120.573 11.3681 120.034 12.0418C119.495 12.5807 119.226 13.3891 119.226 14.3323C119.226 15.2754 119.495 16.0838 120.034 16.6228C120.573 17.2964 121.247 17.5659 122.19 17.5659C123.133 17.5659 123.941 17.2964 124.48 16.6228ZM123.402 12.8502C123.672 13.2544 123.807 13.7933 123.807 14.3323C123.807 14.8712 123.672 15.4102 123.402 15.6796C123.133 16.2186 122.729 16.488 122.19 16.488C121.651 16.488 121.247 16.3533 120.977 15.8144C120.708 15.4102 120.573 14.8712 120.573 14.3323C120.573 13.7933 120.708 13.2544 120.977 12.8502C121.247 12.446 121.651 12.1765 122.19 12.1765C122.729 12.1765 123.133 12.3112 123.402 12.8502ZM131.351 17.4311V13.928C131.351 12.8502 130.946 12.3112 130.138 12.3112C129.734 12.3112 129.464 12.446 129.195 12.7154C128.925 12.9849 128.791 13.3891 128.791 13.7933V17.4311H127.443V12.9849V11.2333H128.656V12.1765C128.791 11.907 129.06 11.6375 129.33 11.3681C129.734 11.0986 130.138 10.9639 130.542 10.9639C131.081 10.9639 131.62 11.0986 132.024 11.5028C132.563 11.907 132.698 12.5807 132.698 13.5238V17.4311H131.351ZM140.378 12.3119H141.861H141.995V11.234H140.513V9.75195L139.166 10.1562V11.234H138.223V12.3119H139.166V15.4108C139.166 16.0845 139.301 16.7582 139.57 17.0276C139.839 17.4318 140.244 17.5666 140.783 17.5666C141.187 17.5666 141.591 17.5666 141.861 17.4318V16.354H141.187C140.648 16.354 140.378 16.0845 140.378 15.2761V12.3119ZM149.137 17.4315H147.789V13.9284C147.789 12.8506 147.385 12.3116 146.577 12.3116C145.903 12.3116 145.499 12.5811 145.229 13.2548V13.7937V17.4315H143.882V8.4043H145.229V12.1769C145.633 11.5032 146.307 11.099 147.115 11.099C147.654 11.099 148.193 11.2337 148.463 11.6379C148.867 12.0421 149.137 12.8506 149.137 13.659V17.4315ZM156.548 14.7365V14.0628C156.548 13.2544 156.413 12.5807 156.143 12.1765C155.739 11.5029 155.066 11.2334 154.122 11.2334C153.179 11.2334 152.506 11.5029 151.967 12.1765C151.428 12.7155 151.158 13.5239 151.158 14.467C151.158 15.4102 151.428 16.2186 151.967 16.7575C152.506 17.2965 153.314 17.5659 154.257 17.5659C155.066 17.5659 155.739 17.4312 156.278 17.1617L156.009 16.2186C155.604 16.3533 155.066 16.4881 154.392 16.4881C153.853 16.4881 153.449 16.3533 153.044 16.0839C152.775 15.8144 152.506 15.4102 152.506 14.7365H156.548ZM155.066 12.5807C155.2 12.8502 155.335 13.2544 155.335 13.6586H152.506C152.506 13.2544 152.64 12.8502 152.91 12.5807C153.179 12.1765 153.583 12.0418 153.988 12.0418C154.527 12.0418 154.796 12.1765 155.066 12.5807Z" fill="white"></path></a>
</svg>