<svg width="170" height="54" xmlns:dc="http://purl.org/dc/elements/1.1/" xmlns:cc="http://creativecommons.org/ns#" xmlns:rdf="http://www.w3.org/1999/02/22-rdf-syntax-ns#" xmlns:svg="http://www.w3.org/2000/svg" xmlns="http://www.w3.org/2000/svg" xmlns:sodipodi="http://sodipodi.sourceforge.net/DTD/sodipodi-0.dtd" xmlns:inkscape="http://www.inkscape.org/namespaces/inkscape" id="svg42" viewBox="0 0 172.46 53.89" version="1.1" sodipodi:docname="FNL.svg">
  <a href="">

  <metadata id="metadata16">
    <rdf:rdf>
      <cc:work rdf:about="">
        <dc:format>image/svg+xml</dc:format>
        <dc:type rdf:resource="http://purl.org/dc/dcmitype/StillImage"></dc:type>
      </cc:work>
    </rdf:rdf>
  </metadata>
  <defs id="defs14"></defs>
  <sodipodi:namedview pagecolor="#ffffff" bordercolor="#666666" borderopacity="1" objecttolerance="10" gridtolerance="10" guidetolerance="10" inkscape:pageopacity="0" inkscape:pageshadow="2" inkscape:window-width="640" inkscape:window-height="480" id="namedview12"></sodipodi:namedview>
  <path id="path2" d="M167.07,53.89H5.39A5.41,5.41,0,0,1,0,48.5V5.39A5.41,5.41,0,0,1,5.39,0H167.07a5.41,5.41,0,0,1,5.39,5.39V48.5A5.4,5.4,0,0,1,167.07,53.89Z" fill="#212121"></path>
  <path id="path4" d="M154,43.4h-.13v-.14h0v.14Z" fill="#fff" fill-rule="evenodd"></path>
  <path id="path6" d="M154.27,43.4Zm0-.14h0c0,.14-.13.14,0,0Z" fill="#fff" fill-rule="evenodd"></path>
  <path id="path8" d="M154.41,43.26h0v0Z" fill="#fff" fill-rule="evenodd"></path>
  <path id="path10" d="M13,25.33V11.45A1.45,1.45,0,0,1,14.32,10a1.93,1.93,0,0,1,1.32.4l25.52,14a1.1,1.1,0,0,1,0,2.11l-25.52,14a2.59,2.59,0,0,1-1.32.4A1.46,1.46,0,0,1,13,39.48Z" fill="#8ac9ce" fill-rule="evenodd"></path>
  <path id="path12" d="M29.52,25.47,14.06,10h.26a1.93,1.93,0,0,1,1.32.4L34.42,20.71Z" fill="#dbe692" fill-rule="evenodd"></path>
  <path id="path14" d="M34.28,30.09l-4.76-4.76,4.9-4.89,6.74,3.71a1.1,1.1,0,0,1,0,2.11Z" fill="#f96" fill-rule="evenodd"></path>
  <path id="path16" d="M14.19,40.67,29.52,25.33l4.76,4.76L15.64,40.27a2.08,2.08,0,0,1-1.45.4Z" fill="#e02772" fill-rule="evenodd"></path>
  <path id="path18" d="M56.1,9a3.75,3.75,0,0,0-3.91,3.91,3.86,3.86,0,0,0,4.05,3.9,4,4,0,0,0,3.1-1.34V12.64H55.7v1.21h2.15v1.21a2.65,2.65,0,0,1-1.75.68A2.52,2.52,0,0,1,53.54,13a2.51,2.51,0,0,1,2.56-2.69,2.43,2.43,0,0,1,2,.94l1.08-.67A3.57,3.57,0,0,0,56.1,9ZM61,9.13v7.55l5.12.13V15.6H62.16V13.45h3.78V12.23H62.16V10.35h3.91V9.13Zm8.9,7.55V10.35h-2.3V9.13h5.93v1.22H71.19v6.33Zm8.21-7.55v7.55h1.35V9.13Zm5,7.55V10.35H80.76V9.13h5.93v1.22H84.4v6.33ZM94.9,9A3.75,3.75,0,0,0,91,12.91a3.82,3.82,0,0,0,3.9,3.9,3.75,3.75,0,0,0,3.91-3.9A3.75,3.75,0,0,0,94.9,9Zm-.13,1.21a2.44,2.44,0,0,1,2.56,2.7,2.51,2.51,0,0,1-2.56,2.69,2.44,2.44,0,0,1-2.56-2.69A2.6,2.6,0,0,1,94.77,10.21Zm10.78,6.47-3.91-5.39v5.39h-1.35V9.13h1.35l3.91,5.26V9.13h1.35v7.55ZM94.1,43a6.51,6.51,0,0,0,1.48,2A6.14,6.14,0,0,0,99,46.32a5,5,0,0,0,3.1-.94,5.86,5.86,0,0,0,2.15-5V30.29h-2.29v.94c-1.75-1.89-4.71-1.62-6.73.4a6,6,0,0,0,0,8c1.88,2.16,5.25,2.43,6.87.41v.81a4.15,4.15,0,0,1-.68,2.29,3.1,3.1,0,0,1-2.29,1.08,3.31,3.31,0,0,1-2.15-1.08c-.27-.41-.54-.81-.68-1.08Zm60.22-2.83L152,45.51h2.29l6.2-14.68h-2.29l-2.83,6.6-2.83-6.6h-2.29Zm-14.14-2.29a3.55,3.55,0,0,0,.94,2.56,5.11,5.11,0,0,0,2.7,1.08,4.28,4.28,0,0,0,1.88-.4l.28-.18a3,3,0,0,0,.93-.77v1h2.29V35.41a5,5,0,0,0-1.07-3.51,4.59,4.59,0,0,0-3.51-1.34,4.27,4.27,0,0,0-4.17,2.69l2,.81a2.49,2.49,0,0,1,2.29-1.48,2.28,2.28,0,0,1,2.42,2.29,4.54,4.54,0,0,0-2.42-.54A5.16,5.16,0,0,0,141,35.68,3,3,0,0,0,140.18,37.83ZM75,29.88a5.66,5.66,0,1,0,5.66,5.66A5.68,5.68,0,0,0,75,29.88Zm12.13,0a5.6,5.6,0,0,0-5.66,5.66,5.68,5.68,0,0,0,5.66,5.66,5.59,5.59,0,0,0,5.66-5.66A5.69,5.69,0,0,0,87.09,29.88ZM54.22,26.11a8.87,8.87,0,0,0-.14,12.4,10,10,0,0,0,6.6,2.69,8.29,8.29,0,0,0,5.8-2.29,7.8,7.8,0,0,0,2.15-5.39,8.64,8.64,0,0,0-.13-1.89h-8v2.43h5.66A4.84,4.84,0,0,1,65,37a6.11,6.11,0,0,1-8.89-.13,6.52,6.52,0,0,1,0-9,6,6,0,0,1,8.63-.13L66.34,26a8.34,8.34,0,0,0-5.93-2.43A8.54,8.54,0,0,0,54.22,26.11Zm56.85,5.26a6.14,6.14,0,0,0,0,8.08,5.89,5.89,0,0,0,8.22-.14,4,4,0,0,1,.68-.8l-2-1.35a3,3,0,0,1-2.82,1.62,2.87,2.87,0,0,1-2.7-1.76l7.41-3.09a7.86,7.86,0,0,0-1.48-2.56A4.9,4.9,0,0,0,111.07,31.37Zm14-5.26V40.93h2.42V35h3a4.51,4.51,0,0,0,4.58-4.44c0-2.43-2.29-4.45-5.12-4.45Zm11.31,0v15h2.3v-15Zm-30.45-2V40.8h2.43V24.09Zm38.94,12a3.72,3.72,0,0,1,2.16.54,2.81,2.81,0,0,1-2.83,2.69c-.94,0-1.89-.53-1.89-1.48S143.28,36.08,144.89,36.08ZM75,32.17a3.19,3.19,0,0,1,3.1,3.37A3.28,3.28,0,0,1,75,38.91a3.18,3.18,0,0,1-3.09-3.37A3.19,3.19,0,0,1,75,32.17Zm12.13,0a3.19,3.19,0,0,1,3.1,3.37,3.11,3.11,0,1,1-6.2,0A3.19,3.19,0,0,1,87.09,32.17Zm15.23,3.91a.49.49,0,0,0-.14.41c-.54,1.48-1.61,2.42-2.69,2.29a3.21,3.21,0,0,1-3.1-3.37,3.28,3.28,0,0,1,3-3.37,3.11,3.11,0,0,1,2.83,2.29.83.83,0,0,0,.07.27,1.2,1.2,0,0,1,.07.27v1.21Zm14.68-3-5,2.15a3.27,3.27,0,0,1,3-3.37A2.25,2.25,0,0,1,117,33.12Zm13.07-4.72a2.34,2.34,0,0,1,2.56,2.29,2.42,2.42,0,0,1-2.42,2.43h-2.83V28.4Z" fill="#fff" fill-rule="evenodd"></path>
</a>
</svg>