<svg xmlns="http://www.w3.org/2000/svg" width="64" height="64" fill="none" viewBox="0 0 64 64">
    <path fill="#fff" fill-rule="evenodd" d="M12.34 21.032c1.242 0 2.25 1.008 2.25 2.25V49.75h35.263V23.282c0-1.242 1.007-2.25 2.25-2.25 1.242 0 2.25 1.008 2.25 2.25V52c0 1.243-1.008 2.25-2.25 2.25H12.338c-1.242 0-2.25-1.007-2.25-2.25V23.282c0-1.242 1.008-2.25 2.25-2.25z" clip-rule="evenodd"/>
    <path fill="#fff" fill-rule="evenodd" d="M5.75 12c0-1.243 1.007-2.25 2.25-2.25h48.6c1.242 0 2.25 1.007 2.25 2.25v11.045c0 1.243-1.008 2.25-2.25 2.25H8c-1.243 0-2.25-1.007-2.25-2.25V12zm4.5 2.25v6.545h44.1V14.25h-44.1zM25.632 31.882c0-1.243 1.007-2.25 2.25-2.25h8.836c1.243 0 2.25 1.007 2.25 2.25 0 1.242-1.007 2.25-2.25 2.25h-8.836c-1.243 0-2.25-1.008-2.25-2.25z" clip-rule="evenodd"/>
</svg>
