<svg xmlns="http://www.w3.org/2000/svg" width="64" height="64" fill="none" viewBox="0 0 64 64">
    <path fill="#fff" fill-rule="evenodd" d="M9.6 37.217c1.243 0 2.25 1.007 2.25 2.25v9.955c0 .724.287 1.418.799 1.93.512.51 1.205.798 1.929.798h34.844c.724 0 1.418-.287 1.93-.799.51-.511.798-1.205.798-1.929v-9.955c0-1.243 1.007-2.25 2.25-2.25s2.25 1.007 2.25 2.25v9.955c0 1.917-.761 3.756-2.117 5.111-1.355 1.355-3.194 2.117-5.11 2.117H14.577c-1.917 0-3.756-.761-5.111-2.117-1.356-1.355-2.117-3.194-2.117-5.11v-9.956c0-1.243 1.007-2.25 2.25-2.25z" clip-rule="evenodd"/>
    <path fill="#fff" fill-rule="evenodd" d="M17.965 25.431c.878-.879 2.303-.879 3.182 0L32 36.285 42.853 25.43c.88-.879 2.304-.879 3.182 0 .88.879.88 2.303 0 3.182L33.591 41.058c-.879.878-2.303.878-3.182 0L17.965 28.613c-.88-.878-.88-2.303 0-3.182z" clip-rule="evenodd"/>
    <path fill="#fff" fill-rule="evenodd" d="M32 7.35c1.243 0 2.25 1.007 2.25 2.25v29.867c0 1.242-1.007 2.25-2.25 2.25s-2.25-1.008-2.25-2.25V9.6c0-1.243 1.007-2.25 2.25-2.25z" clip-rule="evenodd"/>
</svg>
