<svg xmlns="http://www.w3.org/2000/svg" width="66" height="65" fill="none" viewBox="0 0 66 65">
    <path fill="#fff" fill-rule="evenodd" d="M32 6.55c.872 0 1.666.504 2.037 1.294l6.659 14.186 14.846 2.281c.833.129 1.525.712 1.792 1.512.267.8.065 1.681-.524 2.284L46.004 39.175l2.554 15.663c.139.85-.22 1.705-.925 2.201-.704.497-1.63.547-2.384.13L32 49.843l-13.249 7.326c-.754.417-1.68.367-2.384-.13-.705-.496-1.064-1.35-.925-2.201l2.554-15.663L7.19 28.107c-.589-.603-.791-1.485-.524-2.284.267-.8.959-1.383 1.792-1.512l14.846-2.281 6.66-14.186c.37-.79 1.164-1.294 2.036-1.294zm0 7.545l-5.132 10.933c-.319.678-.954 1.154-1.695 1.267l-11.706 1.8 8.543 8.75c.499.51.726 1.228.61 1.933l-1.99 12.21 10.281-5.685c.678-.375 1.5-.375 2.178 0l10.282 5.685-1.992-12.21c-.115-.705.112-1.423.611-1.934l8.543-8.75-11.706-1.799c-.74-.114-1.376-.589-1.695-1.267L32 14.095z" clip-rule="evenodd"/>
</svg>
