<svg xmlns="http://www.w3.org/2000/svg" width="64" height="64" fill="none" viewBox="0 0 64 64">
    <path fill="#fff" fill-rule="evenodd" d="M32 10.25c-12.012 0-21.75 9.738-21.75 21.75S19.988 53.75 32 53.75 53.75 44.012 53.75 32 44.012 10.25 32 10.25zM5.75 32C5.75 17.503 17.503 5.75 32 5.75c14.498 0 26.25 11.753 26.25 26.25 0 14.498-11.752 26.25-26.25 26.25C17.503 58.25 5.75 46.498 5.75 32z" clip-rule="evenodd"/>
    <path fill="#fff" fill-rule="evenodd" d="M5.75 32c0-1.243 1.007-2.25 2.25-2.25h48c1.243 0 2.25 1.007 2.25 2.25s-1.007 2.25-2.25 2.25H8c-1.243 0-2.25-1.007-2.25-2.25z" clip-rule="evenodd"/>
    <path fill="#fff" fill-rule="evenodd" d="M24.65 32c.167 7.478 2.759 14.675 7.35 20.522 4.591-5.847 7.184-13.044 7.35-20.522-.166-7.478-2.759-14.674-7.35-20.522-4.591 5.848-7.183 13.044-7.35 20.522zM32 8l-1.661-1.517c-6.371 6.974-9.992 16.026-10.188 25.47-.001.031-.001.063 0 .094.196 9.444 3.817 18.496 10.188 25.47.426.467 1.029.733 1.661.733.632 0 1.235-.266 1.661-.733 6.371-6.974 9.992-16.026 10.188-25.47.001-.031.001-.063 0-.094-.196-9.444-3.817-18.496-10.188-25.47L32 8z" clip-rule="evenodd"/>
</svg>
