<svg width="484" height="336" viewBox="0 0 484 336" fill="none" xmlns="http://www.w3.org/2000/svg">
<path d="M384 336L6 336C2.68628 336 2.34843e-07 333.314 5.24537e-07 330L2.88495e-05 6C2.91392e-05 2.68628 2.68631 -2.81793e-06 6.00003 -2.52823e-06L384 3.05176e-05L384 336Z" fill="#FAB73B" fill-opacity="0.1"/>
<path d="M383.5 335.5L6 335.5C2.96243 335.5 0.5 333.038 0.500001 330L0.500029 6C0.500029 2.96243 2.96246 0.499997 6.00003 0.499997L383.5 0.50003L383.5 335.5Z" stroke="#FAB73B" stroke-opacity="0.5"/>
<g filter="url(#filter0_d)">
<path d="M32 38C32 34.6863 34.6863 32 38 32L458 32C461.314 32 464 34.6863 464 38L464 298C464 301.314 461.314 304 458 304L38 304C34.6863 304 32 301.314 32 298L32 38Z" fill="white"/>
</g>
<path d="M68.976 70.072C66.688 70.072 65.168 71.304 65.168 73.144C65.168 74.856 66.368 75.576 67.744 75.88L70.16 76.408C71.36 76.68 71.904 77.08 71.904 78.088C71.904 79.272 70.928 80.088 69.296 80.088C67.632 80.088 66.4 79.24 66.16 77.736L64.832 78.008C65.088 80.04 66.912 81.208 69.184 81.208C71.584 81.208 73.168 79.976 73.168 78.024C73.168 76.312 71.952 75.56 70.464 75.24L68.128 74.712C67.12 74.504 66.512 74.072 66.512 73.112C66.512 71.96 67.504 71.176 68.944 71.176C70.416 71.176 71.488 72.008 71.728 73.304L72.992 73.016C72.624 71.256 71.12 70.072 68.976 70.072ZM83.3508 71.416V70.28H74.1188V71.416H78.1028V81H79.3828V71.416H83.3508ZM89.6976 70.072C86.5776 70.072 84.1456 72.536 84.1456 75.64C84.1456 78.76 86.5776 81.208 89.6976 81.208C92.8016 81.208 95.2336 78.76 95.2336 75.64C95.2336 72.536 92.8016 70.072 89.6976 70.072ZM89.6976 80.008C87.2976 80.008 85.4256 78.12 85.4256 75.64C85.4256 73.176 87.2976 71.256 89.6976 71.256C92.0816 71.256 93.9536 73.176 93.9536 75.64C93.9536 78.12 92.0816 80.008 89.6976 80.008ZM106.429 81L102.285 76.408H102.477C104.573 76.408 105.981 75.176 105.981 73.336C105.981 71.496 104.573 70.28 102.477 70.28H97.5174V81H98.7814V76.408H100.749L104.845 81H106.429ZM98.7814 75.256V71.416H102.477C103.821 71.416 104.717 72.184 104.717 73.336C104.717 74.488 103.821 75.256 102.477 75.256H98.7814ZM116.06 79.848H109.5V76.184H115.58V75.048H109.5V71.416H116.044V70.28H108.236V81H116.06V79.848ZM131.895 70.28H130.519L126.615 79.272L122.711 70.28H121.335L126.007 81H127.223L131.895 70.28ZM134.86 81V70.28H133.596V81H134.86ZM145.482 79.848H138.922V76.184H145.002V75.048H138.922V71.416H145.466V70.28H137.658V81H145.482V79.848ZM161.414 70.28H160.086L157.414 79.064L154.678 70.28H153.446L150.71 79.064L148.038 70.28H146.726L150.022 81H151.334L154.07 72.296L156.79 81H158.118L161.414 70.28ZM166.492 70.072C164.204 70.072 162.684 71.304 162.684 73.144C162.684 74.856 163.884 75.576 165.26 75.88L167.676 76.408C168.876 76.68 169.42 77.08 169.42 78.088C169.42 79.272 168.444 80.088 166.812 80.088C165.148 80.088 163.916 79.24 163.676 77.736L162.348 78.008C162.604 80.04 164.428 81.208 166.7 81.208C169.1 81.208 170.684 79.976 170.684 78.024C170.684 76.312 169.468 75.56 167.98 75.24L165.644 74.712C164.636 74.504 164.028 74.072 164.028 73.112C164.028 71.96 165.02 71.176 166.46 71.176C167.932 71.176 169.004 72.008 169.244 73.304L170.508 73.016C170.14 71.256 168.636 70.072 166.492 70.072Z" fill="#1A181E"/>
<path d="M76.864 108.088C79.328 107.16 80.512 105.176 80.512 102.904C80.512 99.448 77.6 97.112 73.184 97.112C68.736 97.112 65.792 99.448 65.792 102.904C65.792 105.24 67.008 107.192 69.472 108.088C66.624 108.984 65.152 111.032 65.152 113.272C65.152 116.92 68.384 119.448 73.184 119.448C77.952 119.448 81.152 116.92 81.152 113.272C81.152 111.064 79.712 108.984 76.864 108.088ZM73.152 99.896C75.328 99.896 77.152 101.08 77.152 103.128C77.152 105.176 75.392 106.424 73.12 106.424C70.88 106.424 69.216 105.24 69.216 103.192C69.216 101.08 70.944 99.896 73.152 99.896ZM73.12 116.536C70.784 116.536 68.96 115.32 68.96 113.112C68.96 110.904 70.752 109.624 73.152 109.624C75.552 109.624 77.408 110.904 77.408 113.048C77.408 115.288 75.456 116.536 73.12 116.536ZM91.3045 97.56H89.1925L82.4725 101.464V104.568L87.9765 101.624V119H91.3045V97.56ZM96.8815 123.224L100.242 114.808V114.712H96.3695L94.3535 123.224H96.8815ZM120.693 114.264V111.448H117.685V97.56H113.205L102.709 111.064V114.264H114.325V119H117.685V114.264H120.693ZM114.325 111.448H106.485L114.325 101.016V111.448ZM135.322 108.12C137.05 107.384 138.106 105.752 138.106 103.576C138.106 99.736 135.226 97.112 130.97 97.112C126.65 97.112 123.738 99.896 123.418 103.928L126.586 104.568C126.778 101.624 128.506 100.12 130.97 100.12C133.37 100.12 134.938 101.496 134.938 103.576C134.938 105.464 133.498 106.616 131.13 106.616H128.282V109.592H131.322C133.85 109.592 135.322 110.808 135.322 112.792C135.322 114.968 133.53 116.44 131.002 116.44C128.25 116.44 126.65 114.712 126.362 111.928L123.13 112.568C123.45 116.664 126.522 119.448 131.002 119.448C135.45 119.448 138.458 116.76 138.458 112.76C138.458 110.488 137.274 108.824 135.322 108.12ZM149.406 97.112C144.798 97.112 141.694 100.184 141.694 104.376C141.694 108.44 144.51 111.416 149.118 111.416C151.39 111.416 153.598 110.392 154.782 108.696C154.846 110.968 154.366 113.272 152.894 114.904C152.062 115.8 150.878 116.408 149.438 116.408C147.486 116.408 146.11 115.704 145.534 113.912L142.238 114.552C143.134 117.72 145.822 119.448 149.31 119.448C151.678 119.448 153.694 118.52 155.134 117.048C157.246 114.872 158.014 111.704 158.014 107.832C158.014 101.016 154.686 97.112 149.406 97.112ZM149.47 108.6C147.07 108.6 145.118 106.84 145.118 104.408C145.118 101.976 147.07 100.184 149.47 100.184C151.806 100.184 153.79 101.88 153.79 104.344C153.79 106.776 151.934 108.6 149.47 108.6Z" fill="#1A181E"/>
<path d="M279.044 100.072C277.716 100.072 276.468 100.744 275.924 101.784C275.876 100.504 276.084 99.032 276.996 98.04C277.46 97.528 278.132 97.192 278.964 97.192C280.084 97.192 280.9 97.656 281.204 98.664L282.42 98.424C281.988 96.904 280.676 96.072 279.012 96.072C277.86 96.072 276.884 96.52 276.18 97.24C275.124 98.328 274.724 99.96 274.724 101.928C274.724 105.256 276.292 107.208 278.948 107.208C281.22 107.208 282.708 105.656 282.708 103.592C282.708 101.576 281.316 100.072 279.044 100.072ZM278.932 106.056C277.508 106.056 276.356 105.064 276.356 103.624C276.356 102.264 277.38 101.128 278.932 101.128C280.404 101.128 281.46 102.184 281.46 103.576C281.46 104.968 280.404 106.056 278.932 106.056ZM286.138 100.52L286.298 97.416H291.466V96.28H285.13L284.89 101.656H288.266C289.722 101.656 290.682 102.36 290.682 103.752C290.682 105.144 289.658 106.056 288.138 106.056C286.602 106.056 285.466 105.064 285.466 103.288L284.25 103.528C284.266 105.848 285.93 107.208 288.122 107.208C290.394 107.208 291.882 105.784 291.882 103.736C291.882 101.656 290.49 100.52 288.362 100.52H286.138ZM293.497 109.112L295.033 104.936V104.904H293.593L292.537 109.112H293.497ZM298.897 96.28H298.113L294.801 98.232V99.4L297.665 97.8V107H298.897V96.28ZM306.921 101.512C307.913 101.176 308.537 100.344 308.537 99.192C308.537 97.336 307.145 96.072 305.049 96.072C302.889 96.072 301.481 97.448 301.337 99.448L302.505 99.672C302.601 98.088 303.577 97.192 305.033 97.192C306.441 97.192 307.369 97.992 307.369 99.192C307.369 100.296 306.505 100.968 305.129 100.968H303.721V102.072H305.209C306.697 102.072 307.593 102.76 307.593 103.944C307.593 105.24 306.569 106.088 305.097 106.088C303.481 106.088 302.489 105.064 302.377 103.48L301.193 103.72C301.321 105.8 302.825 107.208 305.097 107.208C307.273 107.208 308.745 105.896 308.745 103.928C308.745 102.696 308.057 101.832 306.921 101.512ZM312.216 100.52L312.376 97.416H317.544V96.28H311.208L310.968 101.656H314.344C315.8 101.656 316.76 102.36 316.76 103.752C316.76 105.144 315.736 106.056 314.216 106.056C312.68 106.056 311.544 105.064 311.544 103.288L310.328 103.528C310.344 105.848 312.008 107.208 314.2 107.208C316.472 107.208 317.96 105.784 317.96 103.736C317.96 101.656 316.568 100.52 314.44 100.52H312.216ZM328.479 98.92C327.167 98.92 326.047 99.448 325.343 100.376V99.112H324.127V109.72H325.343V105.752C326.047 106.68 327.167 107.208 328.479 107.208C330.575 107.208 332.415 105.56 332.415 103.064C332.415 100.568 330.575 98.92 328.479 98.92ZM328.287 106.12C326.799 106.12 325.343 104.936 325.343 103.064C325.343 101.176 326.799 99.992 328.287 99.992C329.919 99.992 331.231 101.176 331.231 103.064C331.231 104.936 329.919 106.12 328.287 106.12ZM338.917 99.032C337.461 99.032 336.389 99.88 335.749 101.048V99.112H334.517V107H335.749V103.96C335.749 101.832 336.821 100.248 338.917 100.248C339.061 100.248 339.237 100.248 339.381 100.264L339.477 99.096C339.253 99.032 339.109 99.032 338.917 99.032ZM344.38 98.936C342.028 98.936 340.188 100.632 340.188 103.048C340.188 105.464 342.028 107.192 344.38 107.192C346.7 107.192 348.556 105.464 348.556 103.048C348.556 100.632 346.7 98.936 344.38 98.936ZM344.38 106.12C342.748 106.12 341.372 104.872 341.372 103.048C341.372 101.24 342.748 100.008 344.38 100.008C345.996 100.008 347.356 101.24 347.356 103.048C347.356 104.872 345.996 106.12 344.38 106.12ZM358.21 95.48H356.994V100.376C356.29 99.448 355.17 98.92 353.858 98.92C351.762 98.92 349.922 100.568 349.922 103.064C349.922 105.56 351.762 107.208 353.858 107.208C355.17 107.208 356.29 106.68 356.994 105.752V107H358.21V95.48ZM354.05 106.12C352.418 106.12 351.106 104.936 351.106 103.064C351.106 101.176 352.418 99.992 354.05 99.992C355.538 99.992 356.994 101.176 356.994 103.064C356.994 104.936 355.538 106.12 354.05 106.12ZM368.217 99.112H366.985V102.904C366.985 104.952 365.897 106.056 364.249 106.056C362.937 106.056 362.073 105.08 362.073 103.608V99.112H360.841V103.832C360.841 105.832 362.105 107.192 364.009 107.192C365.321 107.192 366.345 106.648 366.985 105.704V106.984H368.217V99.112ZM374.409 106.072C372.793 106.072 371.481 104.904 371.481 103.064C371.481 101.256 372.793 100.04 374.409 100.04C375.577 100.04 376.633 100.68 376.985 101.896L378.153 101.544C377.673 99.928 376.137 98.92 374.409 98.92C372.185 98.92 370.297 100.584 370.297 103.064C370.297 105.576 372.185 107.208 374.409 107.208C376.153 107.208 377.705 106.216 378.137 104.6L377.017 104.296C376.633 105.48 375.577 106.072 374.409 106.072ZM384.572 105.576C384.172 105.864 383.676 106.056 383.228 106.056C382.348 106.056 381.772 105.48 381.772 104.456V100.136H384.588V99.112H381.772V96.6H380.54V99.112H378.828V100.136H380.54V104.536C380.54 106.28 381.58 107.208 383.148 107.208C383.788 107.208 384.332 107.032 384.972 106.584L384.572 105.576ZM397.748 99.112H396.42L393.604 105.56L390.772 99.112H389.444L392.932 107H394.26L397.748 99.112ZM400.175 95.912C399.695 95.912 399.343 96.296 399.343 96.728C399.343 97.192 399.695 97.544 400.175 97.544C400.655 97.544 401.023 97.192 401.023 96.728C401.023 96.296 400.655 95.912 400.175 95.912ZM400.799 107V99.112H399.567V107H400.799ZM410.968 102.856C410.888 100.504 409.224 98.92 407.096 98.92C404.92 98.92 403.016 100.552 403.016 103.08C403.016 105.592 404.92 107.208 407.016 107.208C408.792 107.208 410.168 106.344 410.792 104.696L409.704 104.44C409.144 105.704 408.136 106.136 407.016 106.136C405.656 106.136 404.312 105.08 404.2 103.304H410.968V102.856ZM407.096 99.992C408.408 99.992 409.512 100.84 409.736 102.392H404.248C404.488 100.84 405.816 99.992 407.096 99.992ZM423.625 99.112H422.393L420.361 105.224L418.249 99.112H417.273L415.161 105.224L413.129 99.112H411.897L414.553 107.032H415.689L417.769 101.048L419.833 107.032H420.969L423.625 99.112ZM424.642 104.872C424.834 106.408 426.274 107.208 428.082 107.208C429.97 107.208 431.266 106.328 431.266 104.776C431.266 103.576 430.386 102.968 429.234 102.712L427.33 102.296C426.562 102.12 426.13 101.832 426.13 101.208C426.13 100.456 426.754 99.912 427.874 99.912C429.042 99.912 429.794 100.504 429.954 101.368L431.122 101.112C430.834 99.832 429.682 98.92 427.906 98.92C426.098 98.92 424.914 99.88 424.914 101.304C424.914 102.392 425.65 103.048 426.962 103.32L428.77 103.72C429.57 103.896 430.066 104.2 430.066 104.856C430.066 105.672 429.314 106.2 428.178 106.2C426.93 106.2 425.97 105.64 425.858 104.6L424.642 104.872Z" fill="#808080"/>
<path d="M341.538 70.28H340.754L337.442 72.232V73.4L340.306 71.8V81H341.538V70.28ZM348.377 70.28V81H351.929C355.689 81 357.865 78.664 357.865 75.64C357.865 72.6 355.689 70.28 351.929 70.28H348.377ZM349.641 79.848V71.416H351.913C354.921 71.416 356.585 73.256 356.585 75.64C356.585 78.008 354.921 79.848 351.913 79.848H349.641ZM367.39 76.856C367.31 74.504 365.646 72.92 363.518 72.92C361.342 72.92 359.438 74.552 359.438 77.08C359.438 79.592 361.342 81.208 363.438 81.208C365.214 81.208 366.59 80.344 367.214 78.696L366.126 78.44C365.566 79.704 364.558 80.136 363.438 80.136C362.078 80.136 360.734 79.08 360.622 77.304H367.39V76.856ZM363.518 73.992C364.83 73.992 365.934 74.84 366.158 76.392H360.67C360.91 74.84 362.238 73.992 363.518 73.992ZM372.878 80.072C371.262 80.072 369.95 78.904 369.95 77.064C369.95 75.256 371.262 74.04 372.878 74.04C374.046 74.04 375.102 74.68 375.454 75.896L376.622 75.544C376.142 73.928 374.606 72.92 372.878 72.92C370.654 72.92 368.766 74.584 368.766 77.064C368.766 79.576 370.654 81.208 372.878 81.208C374.622 81.208 376.174 80.216 376.606 78.6L375.486 78.296C375.102 79.48 374.046 80.072 372.878 80.072ZM387.456 77.448V76.376H382.288V77.448H387.456ZM393.622 74.072C392.294 74.072 391.046 74.744 390.502 75.784C390.454 74.504 390.662 73.032 391.574 72.04C392.038 71.528 392.71 71.192 393.542 71.192C394.662 71.192 395.478 71.656 395.782 72.664L396.998 72.424C396.566 70.904 395.254 70.072 393.59 70.072C392.438 70.072 391.462 70.52 390.758 71.24C389.702 72.328 389.302 73.96 389.302 75.928C389.302 79.256 390.87 81.208 393.526 81.208C395.798 81.208 397.286 79.656 397.286 77.592C397.286 75.576 395.894 74.072 393.622 74.072ZM393.51 80.056C392.086 80.056 390.934 79.064 390.934 77.624C390.934 76.264 391.958 75.128 393.51 75.128C394.982 75.128 396.038 76.184 396.038 77.576C396.038 78.968 394.982 80.056 393.51 80.056ZM410.459 70.28H409.195V77.096C409.195 78.824 408.107 80.056 406.491 80.056C404.955 80.056 403.979 79 403.787 77.48L402.587 77.752C402.875 79.784 404.331 81.208 406.491 81.208C408.875 81.208 410.459 79.496 410.459 77.096V70.28ZM420.615 73.112H419.399V74.376C418.695 73.448 417.575 72.92 416.263 72.92C414.167 72.92 412.327 74.568 412.327 77.064C412.327 79.56 414.167 81.208 416.263 81.208C417.575 81.208 418.695 80.68 419.399 79.752V81H420.615V73.112ZM416.455 80.12C414.823 80.12 413.511 78.936 413.511 77.064C413.511 75.176 414.823 73.992 416.455 73.992C417.943 73.992 419.399 75.176 419.399 77.064C419.399 78.936 417.943 80.12 416.455 80.12ZM427.616 72.92C426.288 72.92 425.28 73.464 424.64 74.424V73.112H423.424V81H424.64V77.208C424.64 75.16 425.728 74.04 427.376 74.04C428.688 74.04 429.568 75.032 429.568 76.504V81H430.784V76.28C430.784 74.28 429.52 72.92 427.616 72.92Z" fill="#4D4D4D"/>
<path d="M105 164H432V165H105V164Z" fill="#E6E6E6"/>
<path d="M68.9072 163.367C68.8434 163.96 68.6133 164.438 68.2168 164.803C67.8203 165.167 67.2256 165.409 66.4326 165.527L69.3926 169H67.957L65.0039 165.548L65.1406 164.55H65.7695C65.9928 164.55 66.1888 164.541 66.3574 164.522C66.526 164.504 66.6719 164.479 66.7949 164.447C66.9225 164.411 67.0319 164.367 67.123 164.317C67.2142 164.263 67.2985 164.201 67.376 164.133C67.5765 163.941 67.7064 163.686 67.7656 163.367H65.0039V162.369H67.752C67.7155 162.191 67.6562 162.041 67.5742 161.918C67.4967 161.79 67.3942 161.676 67.2666 161.576C67.139 161.476 66.9704 161.403 66.7607 161.357C66.5557 161.312 66.2799 161.289 65.9336 161.289H65.0039V160.291H70.9102V161.289H68.2852C68.4447 161.403 68.5768 161.553 68.6816 161.74C68.7865 161.927 68.8594 162.137 68.9004 162.369H70.9102V163.367H68.9072Z" fill="#808080"/>
<path d="M76.26 162.938C75.098 162.938 74.006 163.526 73.53 164.436C73.488 163.316 73.67 162.028 74.468 161.16C74.874 160.712 75.462 160.418 76.19 160.418C77.17 160.418 77.884 160.824 78.15 161.706L79.214 161.496C78.836 160.166 77.688 159.438 76.232 159.438C75.224 159.438 74.37 159.83 73.754 160.46C72.83 161.412 72.48 162.84 72.48 164.562C72.48 167.474 73.852 169.182 76.176 169.182C78.164 169.182 79.466 167.824 79.466 166.018C79.466 164.254 78.248 162.938 76.26 162.938ZM76.162 168.174C74.916 168.174 73.908 167.306 73.908 166.046C73.908 164.856 74.804 163.862 76.162 163.862C77.45 163.862 78.374 164.786 78.374 166.004C78.374 167.222 77.45 168.174 76.162 168.174Z" fill="#808080"/>
<path d="M84.9032 159.438C82.5792 159.438 81.0112 161.412 81.0112 164.31C81.0112 167.222 82.5792 169.182 84.9032 169.182C87.2272 169.182 88.7812 167.222 88.7812 164.31C88.7812 161.412 87.2272 159.438 84.9032 159.438ZM84.9032 168.146C83.2232 168.146 82.1312 166.592 82.1312 164.31C82.1312 162.014 83.2232 160.46 84.9032 160.46C86.5692 160.46 87.6612 162.014 87.6612 164.31C87.6612 166.592 86.5692 168.146 84.9032 168.146Z" fill="#808080"/>
<path d="M93.1498 165.444L97.0698 162.098H95.6838L92.4778 164.898H91.8478V158.92H90.7838V169H91.8478V165.948H92.4638L96.0338 169H97.5178L93.1498 165.444Z" fill="#808080"/>
<path d="M105 206H432V207H105V206Z" fill="#E6E6E6"/>
<path d="M68.9072 205.367C68.8434 205.96 68.6133 206.438 68.2168 206.803C67.8203 207.167 67.2256 207.409 66.4326 207.527L69.3926 211H67.957L65.0039 207.548L65.1406 206.55H65.7695C65.9928 206.55 66.1888 206.541 66.3574 206.522C66.526 206.504 66.6719 206.479 66.7949 206.447C66.9225 206.411 67.0319 206.367 67.123 206.317C67.2142 206.263 67.2985 206.201 67.376 206.133C67.5765 205.941 67.7064 205.686 67.7656 205.367H65.0039V204.369H67.752C67.7155 204.191 67.6562 204.041 67.5742 203.918C67.4967 203.79 67.3942 203.676 67.2666 203.576C67.139 203.476 66.9704 203.403 66.7607 203.357C66.5557 203.312 66.2799 203.289 65.9336 203.289H65.0039V202.291H70.9102V203.289H68.2852C68.4447 203.403 68.5768 203.553 68.6816 203.74C68.7865 203.927 68.8594 204.137 68.9004 204.369H70.9102V205.367H68.9072Z" fill="#808080"/>
<path d="M77.506 206.198C78.374 205.904 78.92 205.176 78.92 204.168C78.92 202.544 77.702 201.438 75.868 201.438C73.978 201.438 72.746 202.642 72.62 204.392L73.642 204.588C73.726 203.202 74.58 202.418 75.854 202.418C77.086 202.418 77.898 203.118 77.898 204.168C77.898 205.134 77.142 205.722 75.938 205.722H74.706V206.688H76.008C77.31 206.688 78.094 207.29 78.094 208.326C78.094 209.46 77.198 210.202 75.91 210.202C74.496 210.202 73.628 209.306 73.53 207.92L72.494 208.13C72.606 209.95 73.922 211.182 75.91 211.182C77.814 211.182 79.102 210.034 79.102 208.312C79.102 207.234 78.5 206.478 77.506 206.198Z" fill="#808080"/>
<path d="M84.5751 201.438C82.2511 201.438 80.6831 203.412 80.6831 206.31C80.6831 209.222 82.2511 211.182 84.5751 211.182C86.8991 211.182 88.4531 209.222 88.4531 206.31C88.4531 203.412 86.8991 201.438 84.5751 201.438ZM84.5751 210.146C82.8951 210.146 81.8031 208.592 81.8031 206.31C81.8031 204.014 82.8951 202.46 84.5751 202.46C86.2411 202.46 87.3331 204.014 87.3331 206.31C87.3331 208.592 86.2411 210.146 84.5751 210.146Z" fill="#808080"/>
<path d="M92.8216 207.444L96.7416 204.098H95.3556L92.1496 206.898H91.5196V200.92H90.4556V211H91.5196V207.948H92.1356L95.7056 211H97.1896L92.8216 207.444Z" fill="#808080"/>
<path d="M105 248H432V249H105V248Z" fill="#E6E6E6"/>
<path d="M71.4746 250.242C71.4746 248.842 70.4946 248.226 69.2906 247.974L68.5906 247.82V244.768C69.4726 244.936 70.1866 245.538 70.2706 246.56L71.3346 246.35C71.2086 245.006 70.1726 244.012 68.6326 243.83V242.22H67.6946V243.802C66.0846 243.928 64.9786 244.88 64.9786 246.322C64.9786 247.666 65.9446 248.282 67.1066 248.52L67.7366 248.66V251.824C66.7286 251.656 65.9166 251.012 65.8046 249.864L64.7266 250.088C64.8526 251.614 66.1266 252.58 67.6946 252.776V254.4H68.6326V252.804C70.3126 252.706 71.4746 251.74 71.4746 250.242ZM67.4006 247.54C66.6306 247.358 66.0846 247.036 66.0846 246.252C66.0846 245.412 66.7426 244.838 67.7366 244.726V247.624L67.4006 247.54ZM68.5906 251.866V248.856L69.0246 248.954C69.9066 249.136 70.4246 249.5 70.4246 250.284C70.4246 251.166 69.7106 251.782 68.5906 251.866Z" fill="#808080"/>
<path d="M75.295 243.62L72.397 245.328V246.392L74.903 244.754V253H75.981V243.62H75.295Z" fill="#808080"/>
<path d="M81.8676 243.438C79.5436 243.438 77.9756 245.412 77.9756 248.31C77.9756 251.222 79.5436 253.182 81.8676 253.182C84.1916 253.182 85.7456 251.222 85.7456 248.31C85.7456 245.412 84.1916 243.438 81.8676 243.438ZM81.8676 252.146C80.1876 252.146 79.0956 250.592 79.0956 248.31C79.0956 246.014 80.1876 244.46 81.8676 244.46C83.5336 244.46 84.6256 246.014 84.6256 248.31C84.6256 250.592 83.5336 252.146 81.8676 252.146Z" fill="#808080"/>
<path d="M90.1141 249.444L94.0341 246.098H92.6481L89.4421 248.898H88.8121V242.92H87.7481V253H88.8121V249.948H89.4281L92.9981 253H94.4821L90.1141 249.444Z" fill="#808080"/>
<path d="M90.5464 268.62L87.6484 270.328V271.392L90.1544 269.754V278H91.2324V268.62H90.5464Z" fill="#808080"/>
<path d="M100.324 268.62H97.2163V278H100.324C103.614 278 105.518 275.956 105.518 273.31C105.518 270.65 103.614 268.62 100.324 268.62ZM100.31 276.992H98.3223V269.614H100.31C102.942 269.614 104.398 271.224 104.398 273.31C104.398 275.382 102.942 276.992 100.31 276.992Z" fill="#808080"/>
<path d="M113.853 274.374C113.783 272.316 112.327 270.93 110.465 270.93C108.561 270.93 106.895 272.358 106.895 274.57C106.895 276.768 108.561 278.182 110.395 278.182C111.949 278.182 113.153 277.426 113.699 275.984L112.747 275.76C112.257 276.866 111.375 277.244 110.395 277.244C109.205 277.244 108.029 276.32 107.931 274.766H113.853V274.374ZM110.465 271.868C111.627 271.868 112.579 272.61 112.775 273.968H107.973C108.183 272.61 109.345 271.868 110.465 271.868Z" fill="#808080"/>
<path d="M118.655 277.188C117.241 277.188 116.093 276.166 116.093 274.556C116.093 272.974 117.241 271.91 118.655 271.91C119.677 271.91 120.601 272.47 120.909 273.534L121.931 273.226C121.511 271.812 120.167 270.93 118.655 270.93C116.709 270.93 115.057 272.386 115.057 274.556C115.057 276.754 116.709 278.182 118.655 278.182C120.181 278.182 121.539 277.314 121.917 275.9L120.937 275.634C120.601 276.67 119.677 277.188 118.655 277.188Z" fill="#808080"/>
<path d="M186.898 268.621L184 270.329V271.393L186.506 269.755V278.001H187.584V268.621H186.898Z" fill="#808080"/>
<path d="M194.605 273.199C195.473 272.905 196.019 272.177 196.019 271.169C196.019 269.545 194.801 268.439 192.967 268.439C191.077 268.439 189.845 269.643 189.719 271.393L190.741 271.589C190.825 270.203 191.679 269.419 192.953 269.419C194.185 269.419 194.997 270.119 194.997 271.169C194.997 272.135 194.241 272.723 193.037 272.723H191.805V273.689H193.107C194.409 273.689 195.193 274.291 195.193 275.327C195.193 276.461 194.297 277.203 193.009 277.203C191.595 277.203 190.727 276.307 190.629 274.921L189.593 275.131C189.705 276.951 191.021 278.183 193.009 278.183C194.913 278.183 196.201 277.035 196.201 275.313C196.201 274.235 195.599 273.479 194.605 273.199Z" fill="#808080"/>
<path d="M204.879 268.621H201.771V278.001H204.879C208.169 278.001 210.073 275.957 210.073 273.311C210.073 270.651 208.169 268.621 204.879 268.621ZM204.865 276.993H202.877V269.615H204.865C207.497 269.615 208.953 271.225 208.953 273.311C208.953 275.383 207.497 276.993 204.865 276.993Z" fill="#808080"/>
<path d="M218.408 274.375C218.338 272.317 216.882 270.931 215.02 270.931C213.116 270.931 211.45 272.359 211.45 274.571C211.45 276.769 213.116 278.183 214.95 278.183C216.504 278.183 217.708 277.427 218.254 275.985L217.302 275.761C216.812 276.867 215.93 277.245 214.95 277.245C213.76 277.245 212.584 276.321 212.486 274.767H218.408V274.375ZM215.02 271.869C216.182 271.869 217.134 272.611 217.33 273.969H212.528C212.738 272.611 213.9 271.869 215.02 271.869Z" fill="#808080"/>
<path d="M223.21 277.189C221.796 277.189 220.648 276.167 220.648 274.557C220.648 272.975 221.796 271.911 223.21 271.911C224.232 271.911 225.156 272.471 225.464 273.535L226.486 273.227C226.066 271.813 224.722 270.931 223.21 270.931C221.264 270.931 219.612 272.387 219.612 274.557C219.612 276.755 221.264 278.183 223.21 278.183C224.736 278.183 226.094 277.315 226.472 275.901L225.492 275.635C225.156 276.671 224.232 277.189 223.21 277.189Z" fill="#808080"/>
<path d="M289.82 277.554L292.074 275.454C293.516 274.096 294.272 273.256 294.272 271.87C294.272 270.162 293.026 269 291.178 269C289.33 269 288.07 270.176 288 271.996L289.022 272.206C289.078 270.778 289.89 269.966 291.164 269.966C292.382 269.966 293.208 270.736 293.208 271.884C293.208 273.074 292.48 273.746 291.402 274.726L288.056 277.848V278.562H294.37V277.554H289.82Z" fill="#808080"/>
<path d="M298.999 272.892H297.053L297.193 270.176H301.715V269.182H296.171L295.961 273.886H298.915C300.189 273.886 301.029 274.502 301.029 275.72C301.029 276.938 300.133 277.736 298.803 277.736C297.459 277.736 296.465 276.868 296.465 275.314L295.401 275.524C295.415 277.554 296.871 278.744 298.789 278.744C300.777 278.744 302.079 277.498 302.079 275.706C302.079 273.886 300.861 272.892 298.999 272.892Z" fill="#808080"/>
<path d="M310.583 269.182H307.475V278.562H310.583C313.873 278.562 315.777 276.518 315.777 273.872C315.777 271.212 313.873 269.182 310.583 269.182ZM310.569 277.554H308.581V270.176H310.569C313.201 270.176 314.657 271.786 314.657 273.872C314.657 275.944 313.201 277.554 310.569 277.554Z" fill="#808080"/>
<path d="M324.112 274.936C324.042 272.878 322.586 271.492 320.724 271.492C318.82 271.492 317.154 272.92 317.154 275.132C317.154 277.33 318.82 278.744 320.654 278.744C322.208 278.744 323.412 277.988 323.958 276.546L323.006 276.322C322.516 277.428 321.634 277.806 320.654 277.806C319.464 277.806 318.288 276.882 318.19 275.328H324.112V274.936ZM320.724 272.43C321.886 272.43 322.838 273.172 323.034 274.53H318.232C318.442 273.172 319.604 272.43 320.724 272.43Z" fill="#808080"/>
<path d="M328.914 277.75C327.5 277.75 326.352 276.728 326.352 275.118C326.352 273.536 327.5 272.472 328.914 272.472C329.936 272.472 330.86 273.032 331.168 274.096L332.19 273.788C331.77 272.374 330.426 271.492 328.914 271.492C326.968 271.492 325.316 272.948 325.316 275.118C325.316 277.316 326.968 278.744 328.914 278.744C330.44 278.744 331.798 277.876 332.176 276.462L331.196 276.196C330.86 277.232 329.936 277.75 328.914 277.75Z" fill="#808080"/>
<path d="M397.78 271.938C396.618 271.938 395.526 272.526 395.05 273.436C395.008 272.316 395.19 271.028 395.988 270.16C396.394 269.712 396.982 269.418 397.71 269.418C398.69 269.418 399.404 269.824 399.67 270.706L400.734 270.496C400.356 269.166 399.208 268.438 397.752 268.438C396.744 268.438 395.89 268.83 395.274 269.46C394.35 270.412 394 271.84 394 273.562C394 276.474 395.372 278.182 397.696 278.182C399.684 278.182 400.986 276.824 400.986 275.018C400.986 273.254 399.768 271.938 397.78 271.938ZM397.682 277.174C396.436 277.174 395.428 276.306 395.428 275.046C395.428 273.856 396.324 272.862 397.682 272.862C398.97 272.862 399.894 273.786 399.894 275.004C399.894 276.222 398.97 277.174 397.682 277.174Z" fill="#808080"/>
<path d="M411.407 268.62V274.584C411.407 276.096 410.455 277.174 409.041 277.174C407.697 277.174 406.843 276.25 406.675 274.92L405.625 275.158C405.877 276.936 407.151 278.182 409.041 278.182C411.127 278.182 412.513 276.684 412.513 274.584V268.62H411.407Z" fill="#808080"/>
<path d="M420.405 271.098V272.204C419.789 271.392 418.809 270.93 417.661 270.93C415.827 270.93 414.217 272.372 414.217 274.556C414.217 276.74 415.827 278.182 417.661 278.182C418.809 278.182 419.789 277.72 420.405 276.908V278H421.469V271.098H420.405ZM417.829 277.23C416.401 277.23 415.253 276.194 415.253 274.556C415.253 272.904 416.401 271.868 417.829 271.868C419.131 271.868 420.405 272.904 420.405 274.556C420.405 276.194 419.131 277.23 417.829 277.23Z" fill="#808080"/>
<path d="M427.607 270.93C426.445 270.93 425.563 271.406 425.003 272.246V271.098H423.939V278H425.003V274.682C425.003 272.89 425.955 271.91 427.397 271.91C428.545 271.91 429.315 272.778 429.315 274.066V278H430.379V273.87C430.379 272.12 429.273 270.93 427.607 270.93Z" fill="#808080"/>
<path d="M105 249H106V261H105V249Z" fill="#E6E6E6"/>
<path d="M115 249H116V255H115V249Z" fill="#E6E6E6"/>
<path d="M225 249H226V255H225V249Z" fill="#E6E6E6"/>
<path d="M335 249H336V255H335V249Z" fill="#E6E6E6"/>
<path d="M125 249H126V255H125V249Z" fill="#E6E6E6"/>
<path d="M235 249H236V255H235V249Z" fill="#E6E6E6"/>
<path d="M345 249H346V255H345V249Z" fill="#E6E6E6"/>
<path d="M135 249H136V255H135V249Z" fill="#E6E6E6"/>
<path d="M245 249H246V255H245V249Z" fill="#E6E6E6"/>
<path d="M355 249H356V255H355V249Z" fill="#E6E6E6"/>
<path d="M145 249H146V255H145V249Z" fill="#E6E6E6"/>
<path d="M255 249H256V255H255V249Z" fill="#E6E6E6"/>
<path d="M365 249H366V255H365V249Z" fill="#E6E6E6"/>
<path d="M155 249H156V255H155V249Z" fill="#E6E6E6"/>
<path d="M265 249H266V255H265V249Z" fill="#E6E6E6"/>
<path d="M375 249H376V255H375V249Z" fill="#E6E6E6"/>
<path d="M165 249H166V255H165V249Z" fill="#E6E6E6"/>
<path d="M275 249H276V255H275V249Z" fill="#E6E6E6"/>
<path d="M385 249H386V255H385V249Z" fill="#E6E6E6"/>
<path d="M175 249H176V255H175V249Z" fill="#E6E6E6"/>
<path d="M285 249H286V255H285V249Z" fill="#E6E6E6"/>
<path d="M405 249H406V255H405V249Z" fill="#E6E6E6"/>
<path d="M415 249H416V255H415V249Z" fill="#E6E6E6"/>
<path d="M395 249H396V255H395V249Z" fill="#E6E6E6"/>
<path d="M185 249H186V255H185V249Z" fill="#E6E6E6"/>
<path d="M295 249H296V255H295V249Z" fill="#E6E6E6"/>
<path d="M195 249H196V255H195V249Z" fill="#E6E6E6"/>
<path d="M305 249H306V255H305V249Z" fill="#E6E6E6"/>
<path d="M205 249H206V255H205V249Z" fill="#E6E6E6"/>
<path d="M315 249H316V255H315V249Z" fill="#E6E6E6"/>
<path d="M215 249H216V261H215V249Z" fill="#E6E6E6"/>
<path d="M325 249H326V261H325V249Z" fill="#E6E6E6"/>
<path d="M425 249H426V261H425V249Z" fill="#E6E6E6"/>
<path d="M103 241H108V249H103V241Z" fill="#146EB4"/>
<path d="M113 241H118V249H113V241Z" fill="#146EB4"/>
<path d="M123 241H128V249H123V241Z" fill="#146EB4"/>
<path d="M133 241H138V249H133V241Z" fill="#146EB4"/>
<path d="M143 241H148V249H143V241Z" fill="#146EB4"/>
<path d="M153 225H158V249H153V225Z" fill="#146EB4"/>
<path d="M163 241H168V249H163V241Z" fill="#146EB4"/>
<path d="M173 241H178V249H173V241Z" fill="#146EB4"/>
<path d="M183 209H188V249H183V209Z" fill="#146EB4"/>
<path d="M193 241H198V249H193V241Z" fill="#146EB4"/>
<path d="M203 217H208V249H203V217Z" fill="#146EB4"/>
<path d="M213 233H218V249H213V233Z" fill="#146EB4"/>
<path d="M223 241H228V249H223V241Z" fill="#146EB4"/>
<path d="M233 231H238V249H233V231Z" fill="#146EB4"/>
<path d="M243 241H248V249H243V241Z" fill="#146EB4"/>
<path d="M253 236H258V249H253V236Z" fill="#146EB4"/>
<path d="M263 241H268V249H263V241Z" fill="#146EB4"/>
<path d="M273 241H278V249H273V241Z" fill="#146EB4"/>
<path d="M283 222H288V249H283V222Z" fill="#146EB4"/>
<path d="M293 241H298V249H293V241Z" fill="#146EB4"/>
<path d="M303 217H308V249H303V217Z" fill="#146EB4"/>
<path d="M313 241H318V249H313V241Z" fill="#146EB4"/>
<path d="M323 201H328V249H323V201Z" fill="#146EB4"/>
<path d="M333 241H338V249H333V241Z" fill="#146EB4"/>
<path d="M343 209H348V249H343V209Z" fill="#146EB4"/>
<path d="M353 241H358V249H353V241Z" fill="#146EB4"/>
<path d="M363 193H368V249H363V193Z" fill="#146EB4"/>
<path d="M373 172H378V249H373V172Z" fill="#146EB4"/>
<path d="M383 241H388V249H383V241Z" fill="#146EB4"/>
<path d="M393 193H398V249H393V193Z" fill="#146EB4"/>
<path d="M403 219H408V249H403V219Z" fill="#146EB4"/>
<path d="M413 225H418V249H413V225Z" fill="#146EB4"/>
<path d="M423 197H428V249H423V197Z" fill="#146EB4"/>
<defs>
<filter id="filter0_d" x="12" y="16" width="472" height="312" filterUnits="userSpaceOnUse" color-interpolation-filters="sRGB">
<feFlood flood-opacity="0" result="BackgroundImageFix"/>
<feColorMatrix in="SourceAlpha" type="matrix" values="0 0 0 0 0 0 0 0 0 0 0 0 0 0 0 0 0 0 127 0"/>
<feOffset dy="4"/>
<feGaussianBlur stdDeviation="10"/>
<feColorMatrix type="matrix" values="0 0 0 0 0.596078 0 0 0 0 0.596078 0 0 0 0 0.596078 0 0 0 0.2 0"/>
<feBlend mode="normal" in2="BackgroundImageFix" result="effect1_dropShadow"/>
<feBlend mode="normal" in="SourceGraphic" in2="effect1_dropShadow" result="shape"/>
</filter>
</defs>
</svg>
