<svg width="484" height="336" viewBox="0 0 484 336" fill="none" xmlns="http://www.w3.org/2000/svg">
<path d="M384 336L6 336C2.68628 336 2.34843e-07 333.314 5.24537e-07 330L2.88495e-05 5.99997C2.91392e-05 2.68625 2.68631 -3.33355e-05 6.00003 -3.30458e-05L384 0L384 336Z" fill="#EE741F" fill-opacity="0.1"/>
<path d="M383.5 335.5L6 335.5C2.96243 335.5 0.5 333.038 0.500001 330L0.500029 5.99997C0.500029 2.9624 2.96246 0.499967 6.00003 0.499967L383.5 0.5L383.5 335.5Z" stroke="#EE741F" stroke-opacity="0.5"/>
<g filter="url(#filter0_d)">
<rect x="32" y="32" width="432" height="272" rx="6" fill="white"/>
</g>
<path d="M70.352 79.608C68.192 79.608 66.496 77.896 66.496 75.64C66.496 73.384 68.192 71.672 70.352 71.672C72.032 71.672 73.408 72.568 73.888 74.376L75.552 73.896C74.944 71.528 72.88 70.056 70.352 70.056C67.232 70.056 64.768 72.52 64.768 75.64C64.768 78.776 67.232 81.224 70.352 81.224C72.88 81.224 74.96 79.768 75.552 77.256L73.888 76.904C73.408 78.712 72.032 79.608 70.352 79.608ZM81.9925 72.84C80.8085 72.84 79.8805 73.272 79.2405 74.04V69.48H77.5765V81H79.2405V77.336C79.2405 75.336 80.1845 74.376 81.6085 74.376C82.7445 74.376 83.4965 75.24 83.4965 76.536V81H85.1765V76.2C85.1765 74.216 83.8965 72.84 81.9925 72.84ZM91.098 72.888C88.746 72.888 86.826 74.568 86.826 77.032C86.826 79.496 88.746 81.192 91.098 81.192C93.434 81.192 95.338 79.496 95.338 77.032C95.338 74.568 93.434 72.888 91.098 72.888ZM91.098 79.752C89.706 79.752 88.458 78.68 88.458 77.032C88.458 75.384 89.706 74.312 91.098 74.312C92.458 74.312 93.722 75.384 93.722 77.032C93.722 78.68 92.458 79.752 91.098 79.752ZM100.786 72.888C98.4335 72.888 96.5135 74.568 96.5135 77.032C96.5135 79.496 98.4335 81.192 100.786 81.192C103.122 81.192 105.026 79.496 105.026 77.032C105.026 74.568 103.122 72.888 100.786 72.888ZM100.786 79.752C99.3935 79.752 98.1455 78.68 98.1455 77.032C98.1455 75.384 99.3935 74.312 100.786 74.312C102.146 74.312 103.41 75.384 103.41 77.032C103.41 78.68 102.146 79.752 100.786 79.752ZM106.217 78.872C106.425 80.472 107.945 81.224 109.721 81.224C111.705 81.224 113.065 80.328 113.065 78.664C113.065 77.544 112.281 76.792 111.001 76.52L109.113 76.104C108.409 75.944 108.153 75.656 108.153 75.208C108.153 74.648 108.585 74.168 109.561 74.168C110.585 74.168 111.241 74.696 111.369 75.464L112.953 75.128C112.665 73.8 111.433 72.84 109.609 72.84C107.705 72.84 106.473 73.88 106.473 75.352C106.473 76.472 107.257 77.208 108.633 77.512L110.361 77.864C111.097 78.024 111.433 78.328 111.433 78.808C111.433 79.432 110.825 79.864 109.865 79.864C108.825 79.864 107.993 79.464 107.881 78.52L106.217 78.872ZM122.344 76.856C122.264 74.472 120.504 72.84 118.376 72.84C116.136 72.84 114.264 74.52 114.264 77.048C114.264 79.56 116.152 81.224 118.312 81.224C120.072 81.224 121.48 80.392 122.135 78.728L120.648 78.408C120.088 79.528 119.192 79.784 118.312 79.784C117.144 79.784 116.072 78.904 115.912 77.432H122.344V76.856ZM118.376 74.312C119.464 74.312 120.376 74.952 120.632 76.248H115.96C116.216 74.968 117.336 74.312 118.376 74.312ZM135.835 73.048H133.979L131.435 78.776L128.955 73.048H127.099L130.523 80.808L129.227 83.72H131.083L135.835 73.048ZM140.661 72.888C138.309 72.888 136.389 74.568 136.389 77.032C136.389 79.496 138.309 81.192 140.661 81.192C142.997 81.192 144.901 79.496 144.901 77.032C144.901 74.568 142.997 72.888 140.661 72.888ZM140.661 79.752C139.269 79.752 138.021 78.68 138.021 77.032C138.021 75.384 139.269 74.312 140.661 74.312C142.021 74.312 143.285 75.384 143.285 77.032C143.285 78.68 142.021 79.752 140.661 79.752ZM154.156 73.064H152.492V76.728C152.492 78.728 151.564 79.688 150.14 79.688C148.988 79.688 148.236 78.808 148.236 77.512V73.064H146.572V77.848C146.572 79.848 147.836 81.224 149.756 81.224C150.924 81.224 151.852 80.792 152.492 80.024V81H154.156V73.064ZM161.374 72.968C159.998 72.968 158.99 73.704 158.35 74.76V73.064H156.686V81H158.35V78.2C158.35 76.024 159.342 74.616 161.358 74.616C161.502 74.616 161.694 74.616 161.822 74.632L161.934 73.032C161.726 72.968 161.566 72.968 161.374 72.968ZM175.166 69.48H173.486V73.976C172.782 73.256 171.806 72.84 170.606 72.84C168.542 72.84 166.67 74.536 166.67 77.032C166.67 79.544 168.542 81.224 170.606 81.224C171.806 81.224 172.782 80.808 173.486 80.104V81H175.166V69.48ZM170.878 79.752C169.438 79.752 168.302 78.712 168.302 77.032C168.302 75.368 169.438 74.312 170.878 74.312C172.206 74.312 173.486 75.368 173.486 77.032C173.486 78.712 172.206 79.752 170.878 79.752ZM181.254 72.888C178.902 72.888 176.982 74.568 176.982 77.032C176.982 79.496 178.902 81.192 181.254 81.192C183.59 81.192 185.494 79.496 185.494 77.032C185.494 74.568 183.59 72.888 181.254 72.888ZM181.254 79.752C179.862 79.752 178.614 78.68 178.614 77.032C178.614 75.384 179.862 74.312 181.254 74.312C182.614 74.312 183.878 75.384 183.878 77.032C183.878 78.68 182.614 79.752 181.254 79.752ZM197.166 72.84C195.854 72.84 194.846 73.4 194.206 74.296C193.694 73.368 192.702 72.84 191.566 72.84C190.43 72.84 189.598 73.256 189.022 73.96V73.064H187.358V81H189.022V77.064C189.022 75.288 189.854 74.376 191.134 74.376C192.158 74.376 192.926 75.112 192.926 76.28V81H194.59V77.064C194.59 75.288 195.438 74.376 196.734 74.376C197.758 74.376 198.526 75.112 198.526 76.28V81H200.174V75.944C200.174 74.072 198.814 72.84 197.166 72.84ZM210.29 73.064H208.626V73.976C207.938 73.256 206.946 72.84 205.746 72.84C203.666 72.84 201.81 74.536 201.81 77.032C201.81 79.544 203.666 81.224 205.746 81.224C206.946 81.224 207.938 80.808 208.626 80.088V81H210.29V73.064ZM206.018 79.752C204.562 79.752 203.426 78.712 203.426 77.032C203.426 75.368 204.562 74.312 206.018 74.312C207.33 74.312 208.626 75.368 208.626 77.032C208.626 78.712 207.33 79.752 206.018 79.752ZM213.771 69.64C213.147 69.64 212.699 70.12 212.699 70.68C212.699 71.272 213.147 71.704 213.771 71.704C214.379 71.704 214.827 71.272 214.827 70.68C214.827 70.12 214.379 69.64 213.771 69.64ZM214.603 81V73.064H212.939V81H214.603ZM221.664 72.84C220.48 72.84 219.552 73.272 218.912 74.04V73.064H217.248V81H218.912V77.336C218.912 75.336 219.856 74.376 221.28 74.376C222.416 74.376 223.168 75.24 223.168 76.536V81H224.848V76.2C224.848 74.216 223.568 72.84 221.664 72.84ZM235.539 72.84C234.355 72.84 233.427 73.272 232.787 74.04V73.064H231.123V81H232.787V77.336C232.787 75.336 233.731 74.376 235.155 74.376C236.291 74.376 237.043 75.24 237.043 76.536V81H238.723V76.2C238.723 74.216 237.443 72.84 235.539 72.84ZM248.805 73.064H247.141V73.976C246.453 73.256 245.461 72.84 244.261 72.84C242.181 72.84 240.325 74.536 240.325 77.032C240.325 79.544 242.181 81.224 244.261 81.224C245.461 81.224 246.453 80.808 247.141 80.088V81H248.805V73.064ZM244.533 79.752C243.077 79.752 241.941 78.712 241.941 77.032C241.941 75.368 243.077 74.312 244.533 74.312C245.845 74.312 247.141 75.368 247.141 77.032C247.141 78.712 245.845 79.752 244.533 79.752ZM261.135 72.84C259.823 72.84 258.815 73.4 258.175 74.296C257.663 73.368 256.671 72.84 255.535 72.84C254.399 72.84 253.567 73.256 252.991 73.96V73.064H251.327V81H252.991V77.064C252.991 75.288 253.823 74.376 255.103 74.376C256.127 74.376 256.895 75.112 256.895 76.28V81H258.559V77.064C258.559 75.288 259.407 74.376 260.703 74.376C261.727 74.376 262.495 75.112 262.495 76.28V81H264.143V75.944C264.143 74.072 262.783 72.84 261.135 72.84ZM273.89 76.856C273.81 74.472 272.05 72.84 269.922 72.84C267.682 72.84 265.81 74.52 265.81 77.048C265.81 79.56 267.698 81.224 269.858 81.224C271.618 81.224 273.026 80.392 273.682 78.728L272.194 78.408C271.634 79.528 270.738 79.784 269.858 79.784C268.69 79.784 267.618 78.904 267.458 77.432H273.89V76.856ZM269.922 74.312C271.01 74.312 271.922 74.952 272.178 76.248H267.506C267.762 74.968 268.882 74.312 269.922 74.312Z" fill="#1A181E"/>
<rect x="64.5" y="100.5" width="367" height="39" rx="3.5" fill="#146EB4" fill-opacity="0.05"/>
<path d="M90.696 118.056H89.24L87.658 122.886L86.02 118.056H84.872L83.234 122.886L81.652 118.056H80.196L82.52 125.028H83.85L85.446 120.352L87.042 125.028H88.372L90.696 118.056ZM101.592 118.056H100.136L98.5545 122.886L96.9165 118.056H95.7685L94.1305 122.886L92.5485 118.056H91.0925L93.4165 125.028H94.7465L96.3425 120.352L97.9385 125.028H99.2685L101.592 118.056ZM112.489 118.056H111.033L109.451 122.886L107.813 118.056H106.665L105.027 122.886L103.445 118.056H101.989L104.313 125.028H105.643L107.239 120.352L108.835 125.028H110.165L112.489 118.056ZM113.97 123.278C113.438 123.278 113.046 123.684 113.046 124.16C113.046 124.664 113.438 125.056 113.97 125.056C114.502 125.056 114.88 124.664 114.88 124.16C114.88 123.684 114.502 123.278 113.97 123.278ZM122.703 118.042H121.079L118.853 123.054L116.683 118.042H115.059L118.055 124.832L116.921 127.38H118.545L122.703 118.042ZM126.926 117.902C124.868 117.902 123.188 119.372 123.188 121.528C123.188 123.684 124.868 125.168 126.926 125.168C128.97 125.168 130.636 123.684 130.636 121.528C130.636 119.372 128.97 117.902 126.926 117.902ZM126.926 123.908C125.708 123.908 124.616 122.97 124.616 121.528C124.616 120.086 125.708 119.148 126.926 119.148C128.116 119.148 129.222 120.086 129.222 121.528C129.222 122.97 128.116 123.908 126.926 123.908ZM138.734 118.056H137.278V121.262C137.278 123.012 136.466 123.852 135.22 123.852C134.212 123.852 133.554 123.082 133.554 121.948V118.056H132.098V122.242C132.098 123.992 133.204 125.196 134.884 125.196C135.906 125.196 136.718 124.818 137.278 124.146V125H138.734V118.056ZM145.05 117.972C143.846 117.972 142.964 118.616 142.404 119.54V118.056H140.948V125H142.404V122.55C142.404 120.646 143.272 119.414 145.036 119.414C145.162 119.414 145.33 119.414 145.442 119.428L145.54 118.028C145.358 117.972 145.218 117.972 145.05 117.972ZM153.467 114.92H151.997V118.854C151.381 118.224 150.527 117.86 149.477 117.86C147.671 117.86 146.033 119.344 146.033 121.528C146.033 123.726 147.671 125.196 149.477 125.196C150.527 125.196 151.381 124.832 151.997 124.216V125H153.467V114.92ZM149.715 123.908C148.455 123.908 147.461 122.998 147.461 121.528C147.461 120.072 148.455 119.148 149.715 119.148C150.877 119.148 151.997 120.072 151.997 121.528C151.997 122.998 150.877 123.908 149.715 123.908ZM158.795 117.902C156.737 117.902 155.057 119.372 155.057 121.528C155.057 123.684 156.737 125.168 158.795 125.168C160.839 125.168 162.505 123.684 162.505 121.528C162.505 119.372 160.839 117.902 158.795 117.902ZM158.795 123.908C157.577 123.908 156.485 122.97 156.485 121.528C156.485 120.086 157.577 119.148 158.795 119.148C159.985 119.148 161.091 120.086 161.091 121.528C161.091 122.97 159.985 123.908 158.795 123.908ZM172.717 117.86C171.569 117.86 170.687 118.35 170.127 119.134C169.679 118.322 168.811 117.86 167.817 117.86C166.823 117.86 166.095 118.224 165.591 118.84V118.056H164.135V125H165.591V121.556C165.591 120.002 166.319 119.204 167.439 119.204C168.335 119.204 169.007 119.848 169.007 120.87V125H170.463V121.556C170.463 120.002 171.205 119.204 172.339 119.204C173.235 119.204 173.907 119.848 173.907 120.87V125H175.349V120.576C175.349 118.938 174.159 117.86 172.717 117.86ZM184.201 118.056H182.745V118.854C182.143 118.224 181.275 117.86 180.225 117.86C178.405 117.86 176.781 119.344 176.781 121.528C176.781 123.726 178.405 125.196 180.225 125.196C181.275 125.196 182.143 124.832 182.745 124.202V125H184.201V118.056ZM180.463 123.908C179.189 123.908 178.195 122.998 178.195 121.528C178.195 120.072 179.189 119.148 180.463 119.148C181.611 119.148 182.745 120.072 182.745 121.528C182.745 122.998 181.611 123.908 180.463 123.908ZM187.247 115.06C186.701 115.06 186.309 115.48 186.309 115.97C186.309 116.488 186.701 116.866 187.247 116.866C187.779 116.866 188.171 116.488 188.171 115.97C188.171 115.48 187.779 115.06 187.247 115.06ZM187.975 125V118.056H186.519V125H187.975ZM194.154 117.86C193.118 117.86 192.306 118.238 191.746 118.91V118.056H190.29V125H191.746V121.794C191.746 120.044 192.572 119.204 193.818 119.204C194.812 119.204 195.47 119.96 195.47 121.094V125H196.94V120.8C196.94 119.064 195.82 117.86 194.154 117.86ZM202.835 117.86C201.799 117.86 200.987 118.238 200.427 118.91V118.056H198.971V125H200.427V121.794C200.427 120.044 201.253 119.204 202.499 119.204C203.493 119.204 204.151 119.96 204.151 121.094V125H205.621V120.8C205.621 119.064 204.501 117.86 202.835 117.86ZM214.443 118.056H212.987V118.854C212.385 118.224 211.517 117.86 210.467 117.86C208.647 117.86 207.023 119.344 207.023 121.528C207.023 123.726 208.647 125.196 210.467 125.196C211.517 125.196 212.385 124.832 212.987 124.202V125H214.443V118.056ZM210.705 123.908C209.431 123.908 208.437 122.998 208.437 121.528C208.437 120.072 209.431 119.148 210.705 119.148C211.853 119.148 212.987 120.072 212.987 121.528C212.987 122.998 211.853 123.908 210.705 123.908ZM225.231 117.86C224.083 117.86 223.201 118.35 222.641 119.134C222.193 118.322 221.325 117.86 220.331 117.86C219.337 117.86 218.609 118.224 218.105 118.84V118.056H216.649V125H218.105V121.556C218.105 120.002 218.833 119.204 219.953 119.204C220.849 119.204 221.521 119.848 221.521 120.87V125H222.977V121.556C222.977 120.002 223.719 119.204 224.853 119.204C225.749 119.204 226.421 119.848 226.421 120.87V125H227.863V120.576C227.863 118.938 226.673 117.86 225.231 117.86ZM236.392 121.374C236.322 119.288 234.782 117.86 232.92 117.86C230.96 117.86 229.322 119.33 229.322 121.542C229.322 123.74 230.974 125.196 232.864 125.196C234.404 125.196 235.636 124.468 236.21 123.012L234.908 122.732C234.418 123.712 233.634 123.936 232.864 123.936C231.842 123.936 230.904 123.166 230.764 121.878H236.392V121.374ZM232.92 119.148C233.872 119.148 234.67 119.708 234.894 120.842H230.806C231.03 119.722 232.01 119.148 232.92 119.148ZM238.275 123.278C237.743 123.278 237.351 123.684 237.351 124.16C237.351 124.664 237.743 125.056 238.275 125.056C238.807 125.056 239.185 124.664 239.185 124.16C239.185 123.684 238.807 123.278 238.275 123.278ZM243.805 123.852C242.517 123.852 241.565 122.942 241.565 121.528C241.565 120.156 242.517 119.204 243.805 119.204C244.729 119.204 245.527 119.68 245.793 120.702L247.193 120.296C246.759 118.812 245.373 117.86 243.805 117.86C241.817 117.86 240.137 119.358 240.137 121.528C240.137 123.726 241.817 125.196 243.805 125.196C245.415 125.196 246.815 124.244 247.193 122.746L245.849 122.396C245.513 123.404 244.729 123.852 243.805 123.852ZM251.955 117.902C249.897 117.902 248.217 119.372 248.217 121.528C248.217 123.684 249.897 125.168 251.955 125.168C253.999 125.168 255.665 123.684 255.665 121.528C255.665 119.372 253.999 117.902 251.955 117.902ZM251.955 123.908C250.737 123.908 249.645 122.97 249.645 121.528C249.645 120.086 250.737 119.148 251.955 119.148C253.145 119.148 254.251 120.086 254.251 121.528C254.251 122.97 253.145 123.908 251.955 123.908ZM265.877 117.86C264.729 117.86 263.847 118.35 263.287 119.134C262.839 118.322 261.971 117.86 260.977 117.86C259.983 117.86 259.255 118.224 258.751 118.84V118.056H257.295V125H258.751V121.556C258.751 120.002 259.479 119.204 260.599 119.204C261.495 119.204 262.167 119.848 262.167 120.87V125H263.623V121.556C263.623 120.002 264.365 119.204 265.499 119.204C266.395 119.204 267.067 119.848 267.067 120.87V125H268.509V120.576C268.509 118.938 267.319 117.86 265.877 117.86Z" fill="#146EB4"/>
<circle cx="407" cy="120" r="8.25" stroke="#146EB4" stroke-width="1.5"/>
<circle cx="407" cy="120" r="4" fill="#146EB4"/>
<rect x="64.5" y="100.5" width="367" height="39" rx="3.5" stroke="#146EB4"/>
<rect x="64.5" y="148.5" width="367" height="39" rx="3.5" fill="white"/>
<path d="M90.514 166.098H89.436L87.658 171.446L85.81 166.098H84.956L83.108 171.446L81.33 166.098H80.252L82.576 173.028H83.57L85.39 167.792L87.196 173.028H88.19L90.514 166.098ZM101.274 166.098H100.196L98.4178 171.446L96.5698 166.098H95.7158L93.8678 171.446L92.0898 166.098H91.0118L93.3358 173.028H94.3298L96.1498 167.792L97.9558 173.028H98.9498L101.274 166.098ZM112.034 166.098H110.956L109.178 171.446L107.33 166.098H106.476L104.628 171.446L102.85 166.098H101.772L104.096 173.028H105.09L106.91 167.792L108.716 173.028H109.71L112.034 166.098ZM113.434 171.628C113.014 171.628 112.706 171.964 112.706 172.342C112.706 172.734 113.014 173.042 113.434 173.042C113.854 173.042 114.162 172.734 114.162 172.342C114.162 171.964 113.854 171.628 113.434 171.628ZM121.933 166.098H120.743L118.223 171.614L115.759 166.098H114.555L117.649 172.902L116.515 175.38H117.705L121.933 166.098ZM126.243 165.944C124.185 165.944 122.575 167.428 122.575 169.542C122.575 171.656 124.185 173.168 126.243 173.168C128.273 173.168 129.897 171.656 129.897 169.542C129.897 167.428 128.273 165.944 126.243 165.944ZM126.243 172.23C124.815 172.23 123.611 171.138 123.611 169.542C123.611 167.96 124.815 166.882 126.243 166.882C127.657 166.882 128.847 167.96 128.847 169.542C128.847 171.138 127.657 172.23 126.243 172.23ZM138.008 166.098H136.93V169.416C136.93 171.208 135.978 172.174 134.536 172.174C133.388 172.174 132.632 171.32 132.632 170.032V166.098H131.554V170.228C131.554 171.978 132.66 173.168 134.326 173.168C135.474 173.168 136.37 172.692 136.93 171.866V172.986H138.008V166.098ZM144.309 166.028C143.035 166.028 142.097 166.77 141.537 167.792V166.098H140.459V173H141.537V170.34C141.537 168.478 142.475 167.092 144.309 167.092C144.435 167.092 144.589 167.092 144.715 167.106L144.799 166.084C144.603 166.028 144.477 166.028 144.309 166.028ZM152.59 162.92H151.526V167.204C150.91 166.392 149.93 165.93 148.782 165.93C146.948 165.93 145.338 167.372 145.338 169.556C145.338 171.74 146.948 173.182 148.782 173.182C149.93 173.182 150.91 172.72 151.526 171.908V173H152.59V162.92ZM148.95 172.23C147.522 172.23 146.374 171.194 146.374 169.556C146.374 167.904 147.522 166.868 148.95 166.868C150.252 166.868 151.526 167.904 151.526 169.556C151.526 171.194 150.252 172.23 148.95 172.23ZM158.098 165.944C156.04 165.944 154.43 167.428 154.43 169.542C154.43 171.656 156.04 173.168 158.098 173.168C160.128 173.168 161.752 171.656 161.752 169.542C161.752 167.428 160.128 165.944 158.098 165.944ZM158.098 172.23C156.67 172.23 155.466 171.138 155.466 169.542C155.466 167.96 156.67 166.882 158.098 166.882C159.512 166.882 160.702 167.96 160.702 169.542C160.702 171.138 159.512 172.23 158.098 172.23ZM171.95 165.93C170.774 165.93 169.878 166.476 169.346 167.33C168.94 166.448 168.058 165.93 166.994 165.93C165.916 165.93 165.132 166.392 164.642 167.148V166.098H163.578V173H164.642V169.472C164.642 167.848 165.468 166.91 166.742 166.91C167.764 166.91 168.506 167.624 168.506 168.716V173H169.57V169.472C169.57 167.848 170.41 166.91 171.684 166.91C172.72 166.91 173.462 167.624 173.462 168.716V173H174.526V168.534C174.526 166.966 173.406 165.93 171.95 165.93ZM183.378 166.098H182.314V167.204C181.698 166.392 180.718 165.93 179.57 165.93C177.736 165.93 176.126 167.372 176.126 169.556C176.126 171.74 177.736 173.182 179.57 173.182C180.718 173.182 181.698 172.72 182.314 171.908V173H183.378V166.098ZM179.738 172.23C178.31 172.23 177.162 171.194 177.162 169.556C177.162 167.904 178.31 166.868 179.738 166.868C181.04 166.868 182.314 167.904 182.314 169.556C182.314 171.194 181.04 172.23 179.738 172.23ZM186.48 163.298C186.06 163.298 185.752 163.634 185.752 164.012C185.752 164.418 186.06 164.726 186.48 164.726C186.9 164.726 187.222 164.418 187.222 164.012C187.222 163.634 186.9 163.298 186.48 163.298ZM187.026 173V166.098H185.948V173H187.026ZM193.263 165.93C192.101 165.93 191.219 166.406 190.659 167.246V166.098H189.595V173H190.659V169.682C190.659 167.89 191.611 166.91 193.053 166.91C194.201 166.91 194.971 167.778 194.971 169.066V173H196.035V168.87C196.035 167.12 194.929 165.93 193.263 165.93ZM202 165.93C200.838 165.93 199.956 166.406 199.396 167.246V166.098H198.332V173H199.396V169.682C199.396 167.89 200.348 166.91 201.79 166.91C202.938 166.91 203.708 167.778 203.708 169.066V173H204.772V168.87C204.772 167.12 203.666 165.93 202 165.93ZM213.62 166.098H212.556V167.204C211.94 166.392 210.96 165.93 209.812 165.93C207.978 165.93 206.368 167.372 206.368 169.556C206.368 171.74 207.978 173.182 209.812 173.182C210.96 173.182 211.94 172.72 212.556 171.908V173H213.62V166.098ZM209.98 172.23C208.552 172.23 207.404 171.194 207.404 169.556C207.404 167.904 208.552 166.868 209.98 166.868C211.282 166.868 212.556 167.904 212.556 169.556C212.556 171.194 211.282 172.23 209.98 172.23ZM224.45 165.93C223.274 165.93 222.378 166.476 221.846 167.33C221.44 166.448 220.558 165.93 219.494 165.93C218.416 165.93 217.632 166.392 217.142 167.148V166.098H216.078V173H217.142V169.472C217.142 167.848 217.968 166.91 219.242 166.91C220.264 166.91 221.006 167.624 221.006 168.716V173H222.07V169.472C222.07 167.848 222.91 166.91 224.184 166.91C225.22 166.91 225.962 167.624 225.962 168.716V173H227.026V168.534C227.026 166.966 225.906 165.93 224.45 165.93ZM235.654 169.374C235.584 167.316 234.128 165.93 232.266 165.93C230.362 165.93 228.696 167.358 228.696 169.57C228.696 171.768 230.362 173.182 232.196 173.182C233.75 173.182 234.954 172.426 235.5 170.984L234.548 170.76C234.058 171.866 233.176 172.244 232.196 172.244C231.006 172.244 229.83 171.32 229.732 169.766H235.654V169.374ZM232.266 166.868C233.414 166.868 234.38 167.61 234.576 168.968H229.774C229.984 167.61 231.146 166.868 232.266 166.868ZM237.479 171.628C237.059 171.628 236.751 171.964 236.751 172.342C236.751 172.734 237.059 173.042 237.479 173.042C237.899 173.042 238.207 172.734 238.207 172.342C238.207 171.964 237.899 171.628 237.479 171.628ZM240.784 163.298C240.364 163.298 240.056 163.634 240.056 164.012C240.056 164.418 240.364 164.726 240.784 164.726C241.204 164.726 241.526 164.418 241.526 164.012C241.526 163.634 241.204 163.298 240.784 163.298ZM241.33 173V166.098H240.252V173H241.33ZM247.568 165.93C246.406 165.93 245.524 166.406 244.964 167.246V166.098H243.9V173H244.964V169.682C244.964 167.89 245.916 166.91 247.358 166.91C248.506 166.91 249.276 167.778 249.276 169.066V173H250.34V168.87C250.34 167.12 249.234 165.93 247.568 165.93ZM256.458 166.994V166.098H253.952V165.076C253.952 164.194 254.484 163.648 255.324 163.648C255.576 163.648 255.856 163.704 256.108 163.802L256.374 162.934C256.038 162.766 255.66 162.682 255.254 162.682C253.812 162.682 252.888 163.62 252.888 165.076V166.098H251.684V166.994H252.888V173H253.952V166.994H256.458ZM260.596 165.944C258.538 165.944 256.928 167.428 256.928 169.542C256.928 171.656 258.538 173.168 260.596 173.168C262.626 173.168 264.25 171.656 264.25 169.542C264.25 167.428 262.626 165.944 260.596 165.944ZM260.596 172.23C259.168 172.23 257.964 171.138 257.964 169.542C257.964 167.96 259.168 166.882 260.596 166.882C262.01 166.882 263.2 167.96 263.2 169.542C263.2 171.138 262.01 172.23 260.596 172.23Z" fill="#1A181E"/>
<circle cx="407" cy="168" r="8.25" stroke="#B2B2B2" stroke-width="1.5"/>
<rect x="64.5" y="148.5" width="367" height="39" rx="3.5" stroke="#D9D9D9"/>
<rect x="64.5" y="196.5" width="367" height="39" rx="3.5" fill="white"/>
<path d="M90.514 214.098H89.436L87.658 219.446L85.81 214.098H84.956L83.108 219.446L81.33 214.098H80.252L82.576 221.028H83.57L85.39 215.792L87.196 221.028H88.19L90.514 214.098ZM101.274 214.098H100.196L98.4178 219.446L96.5698 214.098H95.7158L93.8678 219.446L92.0898 214.098H91.0118L93.3358 221.028H94.3298L96.1498 215.792L97.9558 221.028H98.9498L101.274 214.098ZM112.034 214.098H110.956L109.178 219.446L107.33 214.098H106.476L104.628 219.446L102.85 214.098H101.772L104.096 221.028H105.09L106.91 215.792L108.716 221.028H109.71L112.034 214.098ZM113.434 219.628C113.014 219.628 112.706 219.964 112.706 220.342C112.706 220.734 113.014 221.042 113.434 221.042C113.854 221.042 114.162 220.734 114.162 220.342C114.162 219.964 113.854 219.628 113.434 219.628ZM121.933 214.098H120.743L118.223 219.614L115.759 214.098H114.555L117.649 220.902L116.515 223.38H117.705L121.933 214.098ZM126.243 213.944C124.185 213.944 122.575 215.428 122.575 217.542C122.575 219.656 124.185 221.168 126.243 221.168C128.273 221.168 129.897 219.656 129.897 217.542C129.897 215.428 128.273 213.944 126.243 213.944ZM126.243 220.23C124.815 220.23 123.611 219.138 123.611 217.542C123.611 215.96 124.815 214.882 126.243 214.882C127.657 214.882 128.847 215.96 128.847 217.542C128.847 219.138 127.657 220.23 126.243 220.23ZM138.008 214.098H136.93V217.416C136.93 219.208 135.978 220.174 134.536 220.174C133.388 220.174 132.632 219.32 132.632 218.032V214.098H131.554V218.228C131.554 219.978 132.66 221.168 134.326 221.168C135.474 221.168 136.37 220.692 136.93 219.866V220.986H138.008V214.098ZM144.309 214.028C143.035 214.028 142.097 214.77 141.537 215.792V214.098H140.459V221H141.537V218.34C141.537 216.478 142.475 215.092 144.309 215.092C144.435 215.092 144.589 215.092 144.715 215.106L144.799 214.084C144.603 214.028 144.477 214.028 144.309 214.028ZM152.59 210.92H151.526V215.204C150.91 214.392 149.93 213.93 148.782 213.93C146.948 213.93 145.338 215.372 145.338 217.556C145.338 219.74 146.948 221.182 148.782 221.182C149.93 221.182 150.91 220.72 151.526 219.908V221H152.59V210.92ZM148.95 220.23C147.522 220.23 146.374 219.194 146.374 217.556C146.374 215.904 147.522 214.868 148.95 214.868C150.252 214.868 151.526 215.904 151.526 217.556C151.526 219.194 150.252 220.23 148.95 220.23ZM158.098 213.944C156.04 213.944 154.43 215.428 154.43 217.542C154.43 219.656 156.04 221.168 158.098 221.168C160.128 221.168 161.752 219.656 161.752 217.542C161.752 215.428 160.128 213.944 158.098 213.944ZM158.098 220.23C156.67 220.23 155.466 219.138 155.466 217.542C155.466 215.96 156.67 214.882 158.098 214.882C159.512 214.882 160.702 215.96 160.702 217.542C160.702 219.138 159.512 220.23 158.098 220.23ZM171.95 213.93C170.774 213.93 169.878 214.476 169.346 215.33C168.94 214.448 168.058 213.93 166.994 213.93C165.916 213.93 165.132 214.392 164.642 215.148V214.098H163.578V221H164.642V217.472C164.642 215.848 165.468 214.91 166.742 214.91C167.764 214.91 168.506 215.624 168.506 216.716V221H169.57V217.472C169.57 215.848 170.41 214.91 171.684 214.91C172.72 214.91 173.462 215.624 173.462 216.716V221H174.526V216.534C174.526 214.966 173.406 213.93 171.95 213.93ZM183.378 214.098H182.314V215.204C181.698 214.392 180.718 213.93 179.57 213.93C177.736 213.93 176.126 215.372 176.126 217.556C176.126 219.74 177.736 221.182 179.57 221.182C180.718 221.182 181.698 220.72 182.314 219.908V221H183.378V214.098ZM179.738 220.23C178.31 220.23 177.162 219.194 177.162 217.556C177.162 215.904 178.31 214.868 179.738 214.868C181.04 214.868 182.314 215.904 182.314 217.556C182.314 219.194 181.04 220.23 179.738 220.23ZM186.48 211.298C186.06 211.298 185.752 211.634 185.752 212.012C185.752 212.418 186.06 212.726 186.48 212.726C186.9 212.726 187.222 212.418 187.222 212.012C187.222 211.634 186.9 211.298 186.48 211.298ZM187.026 221V214.098H185.948V221H187.026ZM193.263 213.93C192.101 213.93 191.219 214.406 190.659 215.246V214.098H189.595V221H190.659V217.682C190.659 215.89 191.611 214.91 193.053 214.91C194.201 214.91 194.971 215.778 194.971 217.066V221H196.035V216.87C196.035 215.12 194.929 213.93 193.263 213.93ZM202 213.93C200.838 213.93 199.956 214.406 199.396 215.246V214.098H198.332V221H199.396V217.682C199.396 215.89 200.348 214.91 201.79 214.91C202.938 214.91 203.708 215.778 203.708 217.066V221H204.772V216.87C204.772 215.12 203.666 213.93 202 213.93ZM213.62 214.098H212.556V215.204C211.94 214.392 210.96 213.93 209.812 213.93C207.978 213.93 206.368 215.372 206.368 217.556C206.368 219.74 207.978 221.182 209.812 221.182C210.96 221.182 211.94 220.72 212.556 219.908V221H213.62V214.098ZM209.98 220.23C208.552 220.23 207.404 219.194 207.404 217.556C207.404 215.904 208.552 214.868 209.98 214.868C211.282 214.868 212.556 215.904 212.556 217.556C212.556 219.194 211.282 220.23 209.98 220.23ZM224.45 213.93C223.274 213.93 222.378 214.476 221.846 215.33C221.44 214.448 220.558 213.93 219.494 213.93C218.416 213.93 217.632 214.392 217.142 215.148V214.098H216.078V221H217.142V217.472C217.142 215.848 217.968 214.91 219.242 214.91C220.264 214.91 221.006 215.624 221.006 216.716V221H222.07V217.472C222.07 215.848 222.91 214.91 224.184 214.91C225.22 214.91 225.962 215.624 225.962 216.716V221H227.026V216.534C227.026 214.966 225.906 213.93 224.45 213.93ZM235.654 217.374C235.584 215.316 234.128 213.93 232.266 213.93C230.362 213.93 228.696 215.358 228.696 217.57C228.696 219.768 230.362 221.182 232.196 221.182C233.75 221.182 234.954 220.426 235.5 218.984L234.548 218.76C234.058 219.866 233.176 220.244 232.196 220.244C231.006 220.244 229.83 219.32 229.732 217.766H235.654V217.374ZM232.266 214.868C233.414 214.868 234.38 215.61 234.576 216.968H229.774C229.984 215.61 231.146 214.868 232.266 214.868ZM237.479 219.628C237.059 219.628 236.751 219.964 236.751 220.342C236.751 220.734 237.059 221.042 237.479 221.042C237.899 221.042 238.207 220.734 238.207 220.342C238.207 219.964 237.899 219.628 237.479 219.628ZM242.903 220.188C241.489 220.188 240.341 219.166 240.341 217.556C240.341 215.974 241.489 214.91 242.903 214.91C243.925 214.91 244.849 215.47 245.157 216.534L246.179 216.226C245.759 214.812 244.415 213.93 242.903 213.93C240.957 213.93 239.305 215.386 239.305 217.556C239.305 219.754 240.957 221.182 242.903 221.182C244.429 221.182 245.787 220.314 246.165 218.9L245.185 218.634C244.849 219.67 243.925 220.188 242.903 220.188ZM251.04 213.944C248.982 213.944 247.372 215.428 247.372 217.542C247.372 219.656 248.982 221.168 251.04 221.168C253.07 221.168 254.694 219.656 254.694 217.542C254.694 215.428 253.07 213.944 251.04 213.944ZM251.04 220.23C249.612 220.23 248.408 219.138 248.408 217.542C248.408 215.96 249.612 214.882 251.04 214.882C252.454 214.882 253.644 215.96 253.644 217.542C253.644 219.138 252.454 220.23 251.04 220.23Z" fill="#1A181E"/>
<circle cx="407" cy="216" r="8.25" stroke="#B2B2B2" stroke-width="1.5"/>
<rect x="64.5" y="196.5" width="367" height="39" rx="3.5" stroke="#D9D9D9"/>
<path d="M180.286 257.62H178.62L175.484 264.97L172.348 257.62H170.696L174.77 267H176.212L180.286 257.62ZM182.413 257.06C181.867 257.06 181.475 257.48 181.475 257.97C181.475 258.488 181.867 258.866 182.413 258.866C182.945 258.866 183.337 258.488 183.337 257.97C183.337 257.48 182.945 257.06 182.413 257.06ZM183.141 267V260.056H181.685V267H183.141ZM191.924 263.374C191.854 261.288 190.314 259.86 188.452 259.86C186.492 259.86 184.854 261.33 184.854 263.542C184.854 265.74 186.506 267.196 188.396 267.196C189.936 267.196 191.168 266.468 191.742 265.012L190.44 264.732C189.95 265.712 189.166 265.936 188.396 265.936C187.374 265.936 186.436 265.166 186.296 263.878H191.924V263.374ZM188.452 261.148C189.404 261.148 190.202 261.708 190.426 262.842H186.338C186.562 261.722 187.542 261.148 188.452 261.148ZM203.071 260.056H201.615L200.033 264.886L198.395 260.056H197.247L195.609 264.886L194.027 260.056H192.571L194.895 267.028H196.225L197.821 262.352L199.417 267.028H200.747L203.071 260.056ZM216.418 259.86C215.27 259.86 214.388 260.35 213.828 261.134C213.38 260.322 212.512 259.86 211.518 259.86C210.524 259.86 209.796 260.224 209.292 260.84V260.056H207.836V267H209.292V263.556C209.292 262.002 210.02 261.204 211.14 261.204C212.036 261.204 212.708 261.848 212.708 262.87V267H214.164V263.556C214.164 262.002 214.906 261.204 216.04 261.204C216.936 261.204 217.608 261.848 217.608 262.87V267H219.05V262.576C219.05 260.938 217.86 259.86 216.418 259.86ZM224.248 259.902C222.19 259.902 220.51 261.372 220.51 263.528C220.51 265.684 222.19 267.168 224.248 267.168C226.292 267.168 227.958 265.684 227.958 263.528C227.958 261.372 226.292 259.902 224.248 259.902ZM224.248 265.908C223.03 265.908 221.938 264.97 221.938 263.528C221.938 262.086 223.03 261.148 224.248 261.148C225.438 261.148 226.544 262.086 226.544 263.528C226.544 264.97 225.438 265.908 224.248 265.908ZM233.69 259.972C232.486 259.972 231.604 260.616 231.044 261.54V260.056H229.588V267H231.044V264.55C231.044 262.646 231.912 261.414 233.676 261.414C233.802 261.414 233.97 261.414 234.082 261.428L234.18 260.028C233.998 259.972 233.858 259.972 233.69 259.972ZM241.812 263.374C241.742 261.288 240.202 259.86 238.34 259.86C236.38 259.86 234.742 261.33 234.742 263.542C234.742 265.74 236.394 267.196 238.284 267.196C239.824 267.196 241.056 266.468 241.63 265.012L240.328 264.732C239.838 265.712 239.054 265.936 238.284 265.936C237.262 265.936 236.324 265.166 236.184 263.878H241.812V263.374ZM238.34 261.148C239.292 261.148 240.09 261.708 240.314 262.842H236.226C236.45 261.722 237.43 261.148 238.34 261.148ZM253.715 256.92H252.245V260.854C251.629 260.224 250.775 259.86 249.725 259.86C247.919 259.86 246.281 261.344 246.281 263.528C246.281 265.726 247.919 267.196 249.725 267.196C250.775 267.196 251.629 266.832 252.245 266.216V267H253.715V256.92ZM249.963 265.908C248.703 265.908 247.709 264.998 247.709 263.528C247.709 262.072 248.703 261.148 249.963 261.148C251.125 261.148 252.245 262.072 252.245 263.528C252.245 264.998 251.125 265.908 249.963 265.908ZM259.043 259.902C256.985 259.902 255.305 261.372 255.305 263.528C255.305 265.684 256.985 267.168 259.043 267.168C261.087 267.168 262.753 265.684 262.753 263.528C262.753 261.372 261.087 259.902 259.043 259.902ZM259.043 265.908C257.825 265.908 256.733 264.97 256.733 263.528C256.733 262.086 257.825 261.148 259.043 261.148C260.233 261.148 261.339 262.086 261.339 263.528C261.339 264.97 260.233 265.908 259.043 265.908ZM272.965 259.86C271.817 259.86 270.935 260.35 270.375 261.134C269.927 260.322 269.059 259.86 268.065 259.86C267.071 259.86 266.343 260.224 265.839 260.84V260.056H264.383V267H265.839V263.556C265.839 262.002 266.567 261.204 267.687 261.204C268.583 261.204 269.255 261.848 269.255 262.87V267H270.711V263.556C270.711 262.002 271.453 261.204 272.587 261.204C273.483 261.204 274.155 261.848 274.155 262.87V267H275.597V262.576C275.597 260.938 274.407 259.86 272.965 259.86ZM284.449 260.056H282.993V260.854C282.391 260.224 281.523 259.86 280.473 259.86C278.653 259.86 277.029 261.344 277.029 263.528C277.029 265.726 278.653 267.196 280.473 267.196C281.523 267.196 282.391 266.832 282.993 266.202V267H284.449V260.056ZM280.711 265.908C279.437 265.908 278.443 264.998 278.443 263.528C278.443 262.072 279.437 261.148 280.711 261.148C281.859 261.148 282.993 262.072 282.993 263.528C282.993 264.998 281.859 265.908 280.711 265.908ZM287.495 257.06C286.949 257.06 286.557 257.48 286.557 257.97C286.557 258.488 286.949 258.866 287.495 258.866C288.027 258.866 288.419 258.488 288.419 257.97C288.419 257.48 288.027 257.06 287.495 257.06ZM288.223 267V260.056H286.767V267H288.223ZM294.402 259.86C293.366 259.86 292.554 260.238 291.994 260.91V260.056H290.538V267H291.994V263.794C291.994 262.044 292.82 261.204 294.066 261.204C295.06 261.204 295.718 261.96 295.718 263.094V267H297.188V262.8C297.188 261.064 296.068 259.86 294.402 259.86ZM298.631 265.138C298.813 266.538 300.143 267.196 301.697 267.196C303.433 267.196 304.623 266.412 304.623 264.956C304.623 263.976 303.937 263.318 302.817 263.08L301.165 262.716C300.549 262.576 300.325 262.324 300.325 261.932C300.325 261.442 300.703 261.022 301.557 261.022C302.453 261.022 303.027 261.484 303.139 262.156L304.525 261.862C304.273 260.7 303.195 259.86 301.599 259.86C299.933 259.86 298.855 260.77 298.855 262.058C298.855 263.038 299.541 263.682 300.745 263.948L302.257 264.256C302.901 264.396 303.195 264.662 303.195 265.082C303.195 265.628 302.663 266.006 301.823 266.006C300.913 266.006 300.185 265.656 300.087 264.83L298.631 265.138Z" fill="#146EB4"/>
<path d="M311.777 258.777C312.114 258.441 312.64 258.411 313.011 258.686L313.117 258.777L317.5 263.16L321.883 258.777C322.219 258.441 322.745 258.411 323.116 258.686L323.223 258.777C323.559 259.114 323.589 259.64 323.314 260.011L323.223 260.117L318.17 265.17C317.834 265.506 317.307 265.537 316.936 265.262L316.83 265.17L311.777 260.117C311.408 259.747 311.408 259.147 311.777 258.777Z" fill="#146EB4"/>
<defs>
<filter id="filter0_d" x="12" y="16" width="472" height="312" filterUnits="userSpaceOnUse" color-interpolation-filters="sRGB">
<feFlood flood-opacity="0" result="BackgroundImageFix"/>
<feColorMatrix in="SourceAlpha" type="matrix" values="0 0 0 0 0 0 0 0 0 0 0 0 0 0 0 0 0 0 127 0"/>
<feOffset dy="4"/>
<feGaussianBlur stdDeviation="10"/>
<feColorMatrix type="matrix" values="0 0 0 0 0.596078 0 0 0 0 0.596078 0 0 0 0 0.596078 0 0 0 0.2 0"/>
<feBlend mode="normal" in2="BackgroundImageFix" result="effect1_dropShadow"/>
<feBlend mode="normal" in="SourceGraphic" in2="effect1_dropShadow" result="shape"/>
</filter>
</defs>
</svg>
