<svg width="65" height="65" viewBox="0 0 65 66" fill="none" xmlns="http://www.w3.org/2000/svg">
<path opacity="0.3" d="M53.3279 45.4355C45.0713 57.8312 32.6624 57.9794 19.1205 54.8303C6.86376 51.6169 1.0536 45.6056 4.5787 35.9205C6.73586 25.3051 24.9054 11.8948 42.9074 10.9849C63.0517 9.96679 61.5844 33.0398 53.3279 45.4355Z" fill="#146eb4"/>
<mask id="path-2-inside-1" fill="white">
<path fill-rule="evenodd" clip-rule="evenodd" d="M35.1246 9.65918C24.6773 9.65918 16.2081 18.1284 16.2081 28.5757C16.2081 39.023 24.6773 47.4922 35.1246 47.4922C45.5719 47.4922 54.0411 39.023 54.0411 28.5757C54.0411 18.1284 45.5719 9.65918 35.1246 9.65918ZM14.2081 28.5757C14.2081 17.0238 23.5728 7.65918 35.1246 7.65918C46.6765 7.65918 56.0411 17.0238 56.0411 28.5757C56.0411 40.1276 46.6765 49.4922 35.1246 49.4922C23.5728 49.4922 14.2081 40.1276 14.2081 28.5757ZM35.125 13.6431C26.8776 13.6431 20.1918 20.3289 20.1918 28.5763C20.1918 36.8236 26.8776 43.5095 35.125 43.5095C43.3724 43.5095 50.0582 36.8236 50.0582 28.5763C50.0582 20.3289 43.3724 13.6431 35.125 13.6431ZM18.1918 28.5763C18.1918 19.2243 25.773 11.6431 35.125 11.6431C44.4769 11.6431 52.0582 19.2243 52.0582 28.5763C52.0582 37.9282 44.4769 45.5095 35.125 45.5095C25.773 45.5095 18.1918 37.9282 18.1918 28.5763ZM37.7129 25.962H38.4445C38.8109 25.962 39.1083 26.2264 39.1083 26.5522C39.1083 26.8779 38.8109 27.1423 38.4445 27.1423H37.7129C37.4049 28.4877 36.0652 29.5027 34.4613 29.5027H33.4085L37.5868 33.217C37.8457 33.4471 37.8457 33.8212 37.5868 34.0514C37.4567 34.1659 37.2867 34.2237 37.1168 34.2237C36.9468 34.2237 36.7769 34.1659 36.6467 34.0502L31.3372 29.3304C31.2748 29.2761 31.2257 29.2112 31.1925 29.1381C31.1248 28.9941 31.1248 28.8312 31.1925 28.6872C31.2602 28.542 31.3903 28.4276 31.5523 28.3674C31.6333 28.3379 31.7196 28.3225 31.8059 28.3225H34.4613C35.3257 28.3225 36.0559 27.828 36.3308 27.1423H31.8059C31.4395 27.1423 31.1421 26.8779 31.1421 26.5522C31.1421 26.2264 31.4395 25.962 31.8059 25.962H36.3308C36.0559 25.2763 35.3257 24.7818 34.4613 24.7818H31.8059C31.4395 24.7818 31.1421 24.5174 31.1421 24.1917C31.1421 23.8659 31.4395 23.6016 31.8059 23.6016H34.4613H38.4445C38.8109 23.6016 39.1083 23.8659 39.1083 24.1917C39.1083 24.5174 38.8109 24.7818 38.4445 24.7818H37.0995C37.3929 25.1264 37.6133 25.523 37.7129 25.962Z"/>
</mask>
<path fill-rule="evenodd" clip-rule="evenodd" d="M35.1246 9.65918C24.6773 9.65918 16.2081 18.1284 16.2081 28.5757C16.2081 39.023 24.6773 47.4922 35.1246 47.4922C45.5719 47.4922 54.0411 39.023 54.0411 28.5757C54.0411 18.1284 45.5719 9.65918 35.1246 9.65918ZM14.2081 28.5757C14.2081 17.0238 23.5728 7.65918 35.1246 7.65918C46.6765 7.65918 56.0411 17.0238 56.0411 28.5757C56.0411 40.1276 46.6765 49.4922 35.1246 49.4922C23.5728 49.4922 14.2081 40.1276 14.2081 28.5757ZM35.125 13.6431C26.8776 13.6431 20.1918 20.3289 20.1918 28.5763C20.1918 36.8236 26.8776 43.5095 35.125 43.5095C43.3724 43.5095 50.0582 36.8236 50.0582 28.5763C50.0582 20.3289 43.3724 13.6431 35.125 13.6431ZM18.1918 28.5763C18.1918 19.2243 25.773 11.6431 35.125 11.6431C44.4769 11.6431 52.0582 19.2243 52.0582 28.5763C52.0582 37.9282 44.4769 45.5095 35.125 45.5095C25.773 45.5095 18.1918 37.9282 18.1918 28.5763ZM37.7129 25.962H38.4445C38.8109 25.962 39.1083 26.2264 39.1083 26.5522C39.1083 26.8779 38.8109 27.1423 38.4445 27.1423H37.7129C37.4049 28.4877 36.0652 29.5027 34.4613 29.5027H33.4085L37.5868 33.217C37.8457 33.4471 37.8457 33.8212 37.5868 34.0514C37.4567 34.1659 37.2867 34.2237 37.1168 34.2237C36.9468 34.2237 36.7769 34.1659 36.6467 34.0502L31.3372 29.3304C31.2748 29.2761 31.2257 29.2112 31.1925 29.1381C31.1248 28.9941 31.1248 28.8312 31.1925 28.6872C31.2602 28.542 31.3903 28.4276 31.5523 28.3674C31.6333 28.3379 31.7196 28.3225 31.8059 28.3225H34.4613C35.3257 28.3225 36.0559 27.828 36.3308 27.1423H31.8059C31.4395 27.1423 31.1421 26.8779 31.1421 26.5522C31.1421 26.2264 31.4395 25.962 31.8059 25.962H36.3308C36.0559 25.2763 35.3257 24.7818 34.4613 24.7818H31.8059C31.4395 24.7818 31.1421 24.5174 31.1421 24.1917C31.1421 23.8659 31.4395 23.6016 31.8059 23.6016H34.4613H38.4445C38.8109 23.6016 39.1083 23.8659 39.1083 24.1917C39.1083 24.5174 38.8109 24.7818 38.4445 24.7818H37.0995C37.3929 25.1264 37.6133 25.523 37.7129 25.962Z" fill="#212121"/>
<path d="M37.7129 25.962L35.7624 26.4044L36.1157 27.962H37.7129V25.962ZM37.7129 27.1423V25.1423H36.119L35.7633 26.6959L37.7129 27.1423ZM33.4085 29.5027V27.5027H28.1482L32.0797 30.9975L33.4085 29.5027ZM37.5868 33.217L38.9155 31.7222H38.9155L37.5868 33.217ZM37.5868 34.0514L38.9079 35.5529L38.9155 35.5462L37.5868 34.0514ZM36.6467 34.0502L37.9755 32.5554L37.9755 32.5554L36.6467 34.0502ZM31.3372 29.3304L32.666 27.8356L32.658 27.8286L32.65 27.8216L31.3372 29.3304ZM31.1925 29.1381L33.0139 28.3118L33.0082 28.2994L33.0024 28.2869L31.1925 29.1381ZM31.1925 28.6872L33.0024 29.5383L33.005 29.5326L31.1925 28.6872ZM31.5523 28.3674L30.8677 26.4882L30.8557 26.4926L31.5523 28.3674ZM36.3308 27.1423L38.1872 27.8863L39.287 25.1423H36.3308V27.1423ZM36.3308 25.962V27.962H39.287L38.1872 25.218L36.3308 25.962ZM37.0995 24.7818V22.7818H32.77L35.5767 26.0783L37.0995 24.7818ZM18.2081 28.5757C18.2081 19.233 25.7819 11.6592 35.1246 11.6592V7.65918C23.5728 7.65918 14.2081 17.0238 14.2081 28.5757H18.2081ZM35.1246 45.4922C25.7819 45.4922 18.2081 37.9184 18.2081 28.5757H14.2081C14.2081 40.1276 23.5728 49.4922 35.1246 49.4922V45.4922ZM52.0411 28.5757C52.0411 37.9184 44.4674 45.4922 35.1246 45.4922V49.4922C46.6765 49.4922 56.0411 40.1276 56.0411 28.5757H52.0411ZM35.1246 11.6592C44.4674 11.6592 52.0411 19.233 52.0411 28.5757H56.0411C56.0411 17.0238 46.6765 7.65918 35.1246 7.65918V11.6592ZM35.1246 5.65918C22.4682 5.65918 12.2081 15.9192 12.2081 28.5757H16.2081C16.2081 18.1284 24.6773 9.65918 35.1246 9.65918V5.65918ZM58.0411 28.5757C58.0411 15.9192 47.7811 5.65918 35.1246 5.65918V9.65918C45.5719 9.65918 54.0411 18.1284 54.0411 28.5757H58.0411ZM35.1246 51.4922C47.7811 51.4922 58.0411 41.2321 58.0411 28.5757H54.0411C54.0411 39.023 45.5719 47.4922 35.1246 47.4922V51.4922ZM12.2081 28.5757C12.2081 41.2321 22.4682 51.4922 35.1246 51.4922V47.4922C24.6773 47.4922 16.2081 39.023 16.2081 28.5757H12.2081ZM22.1918 28.5763C22.1918 21.4335 27.9822 15.6431 35.125 15.6431V11.6431C25.773 11.6431 18.1918 19.2243 18.1918 28.5763H22.1918ZM35.125 41.5095C27.9822 41.5095 22.1918 35.7191 22.1918 28.5763H18.1918C18.1918 37.9282 25.773 45.5095 35.125 45.5095V41.5095ZM48.0582 28.5763C48.0582 35.7191 42.2678 41.5095 35.125 41.5095V45.5095C44.4769 45.5095 52.0582 37.9282 52.0582 28.5763H48.0582ZM35.125 15.6431C42.2678 15.6431 48.0582 21.4335 48.0582 28.5763H52.0582C52.0582 19.2243 44.4769 11.6431 35.125 11.6431V15.6431ZM35.125 9.64307C24.6685 9.64307 16.1918 18.1198 16.1918 28.5763H20.1918C20.1918 20.3289 26.8776 13.6431 35.125 13.6431V9.64307ZM54.0582 28.5763C54.0582 18.1198 45.5815 9.64307 35.125 9.64307V13.6431C43.3724 13.6431 50.0582 20.3289 50.0582 28.5763H54.0582ZM35.125 47.5095C45.5815 47.5095 54.0582 39.0328 54.0582 28.5763H50.0582C50.0582 36.8236 43.3724 43.5095 35.125 43.5095V47.5095ZM16.1918 28.5763C16.1918 39.0328 24.6685 47.5095 35.125 47.5095V43.5095C26.8776 43.5095 20.1918 36.8236 20.1918 28.5763H16.1918ZM38.4445 23.962H37.7129V27.962H38.4445V23.962ZM41.1083 26.5522C41.1083 24.907 39.6876 23.962 38.4445 23.962V27.962C37.9342 27.962 37.1083 27.5458 37.1083 26.5522H41.1083ZM38.4445 29.1423C39.6876 29.1423 41.1083 28.1973 41.1083 26.5522H37.1083C37.1083 25.5585 37.9342 25.1423 38.4445 25.1423V29.1423ZM37.7129 29.1423H38.4445V25.1423H37.7129V29.1423ZM34.4613 31.5027C36.862 31.5027 39.1174 29.9693 39.6625 27.5886L35.7633 26.6959C35.6923 27.0062 35.2685 27.5027 34.4613 27.5027V31.5027ZM33.4085 31.5027H34.4613V27.5027H33.4085V31.5027ZM38.9155 31.7222L34.7372 28.008L32.0797 30.9975L36.258 34.7117L38.9155 31.7222ZM38.9155 35.5462C40.0694 34.5204 40.0694 32.7479 38.9155 31.7222L36.258 34.7117C35.9724 34.4579 35.7809 34.0701 35.7809 33.6342C35.7809 33.1982 35.9724 32.8105 36.258 32.5566L38.9155 35.5462ZM37.1168 36.2237C37.7278 36.2237 38.3801 36.0173 38.9079 35.5529L36.2656 32.5498C36.5332 32.3144 36.8456 32.2237 37.1168 32.2237V36.2237ZM35.318 35.545C35.8486 36.0166 36.505 36.2237 37.1168 36.2237V32.2237C37.3886 32.2237 37.7052 32.3151 37.9755 32.5554L35.318 35.545ZM30.0085 30.8252L35.318 35.545L37.9755 32.5554L32.666 27.8356L30.0085 30.8252ZM29.3711 29.9643C29.5289 30.312 29.7567 30.6063 30.0245 30.8393L32.65 27.8216C32.793 27.946 32.9225 28.1105 33.0139 28.3118L29.3711 29.9643ZM29.3826 27.8361C29.0614 28.5192 29.0614 29.3061 29.3826 29.9892L33.0024 28.2869C33.1882 28.682 33.1882 29.1432 33.0024 29.5383L29.3826 27.8361ZM30.8557 26.4926C30.2556 26.7156 29.6934 27.1698 29.38 27.8418L33.005 29.5326C32.827 29.9143 32.5251 30.1395 32.249 30.2421L30.8557 26.4926ZM31.8059 26.3225C31.4845 26.3225 31.1666 26.3793 30.8677 26.4882L32.2369 30.2465C32.1 30.2964 31.9547 30.3225 31.8059 30.3225V26.3225ZM34.4613 26.3225H31.8059V30.3225H34.4613V26.3225ZM34.4743 26.3982C34.503 26.3265 34.5379 26.3057 34.534 26.3082C34.533 26.3089 34.5106 26.3225 34.4613 26.3225V30.3225C36.0693 30.3225 37.5818 29.3968 38.1872 27.8863L34.4743 26.3982ZM31.8059 29.1423H36.3308V25.1423H31.8059V29.1423ZM29.1421 26.5522C29.1421 28.1973 30.5628 29.1423 31.8059 29.1423V25.1423C32.3162 25.1423 33.1421 25.5585 33.1421 26.5522H29.1421ZM31.8059 23.962C30.5628 23.962 29.1421 24.907 29.1421 26.5522H33.1421C33.1421 27.5459 32.3162 27.962 31.8059 27.962V23.962ZM36.3308 23.962H31.8059V27.962H36.3308V23.962ZM34.4613 26.7818C34.5106 26.7818 34.533 26.7955 34.534 26.7961C34.5379 26.7986 34.503 26.7778 34.4743 26.7061L38.1872 25.218C37.5818 23.7075 36.0693 22.7818 34.4613 22.7818V26.7818ZM31.8059 26.7818H34.4613V22.7818H31.8059V26.7818ZM29.1421 24.1917C29.1421 25.8369 30.5628 26.7818 31.8059 26.7818V22.7818C32.3161 22.7818 33.1421 23.198 33.1421 24.1917H29.1421ZM31.8059 21.6016C30.5628 21.6016 29.1421 22.5465 29.1421 24.1917H33.1421C33.1421 25.1854 32.3162 25.6016 31.8059 25.6016V21.6016ZM34.4613 21.6016H31.8059V25.6016H34.4613V21.6016ZM38.4445 21.6016H34.4613V25.6016H38.4445V21.6016ZM41.1083 24.1917C41.1083 22.5465 39.6876 21.6016 38.4445 21.6016V25.6016C37.9342 25.6016 37.1083 25.1854 37.1083 24.1917H41.1083ZM38.4445 26.7818C39.6876 26.7818 41.1083 25.8369 41.1083 24.1917H37.1083C37.1083 23.198 37.9342 22.7818 38.4445 22.7818V26.7818ZM37.0995 26.7818H38.4445V22.7818H37.0995V26.7818ZM39.6634 25.5197C39.4794 24.7087 39.0838 24.0273 38.6223 23.4853L35.5767 26.0783C35.702 26.2256 35.7472 26.3373 35.7624 26.4044L39.6634 25.5197Z" fill="black" mask="url(#path-2-inside-1)"/>
</svg>
