<svg width="484" height="336" viewBox="0 0 484 336" fill="none" xmlns="http://www.w3.org/2000/svg">
<path d="M384 336L6 336C2.68628 336 2.34843e-07 333.314 5.24537e-07 330L2.88495e-05 5.99997C2.91392e-05 2.68625 2.68631 -3.33355e-05 6.00003 -3.30458e-05L384 0L384 336Z" fill="#808080" fill-opacity="0.1"/>
<path d="M383.5 335.5L6 335.5C2.96243 335.5 0.5 333.038 0.500001 330L0.500029 5.99997C0.500029 2.9624 2.96246 0.499967 6.00003 0.499967L383.5 0.5L383.5 335.5Z" stroke="#808080" stroke-opacity="0.5"/>
<g filter="url(#filter0_d)">
<rect x="32" y="32.0001" width="432" height="272" rx="6" fill="white"/>
</g>
<rect x="64" y="64" width="168" height="168" rx="2" fill="#EE741F" fill-opacity="0.1"/>
<rect opacity="0.7" x="80" y="80" width="136" height="36" rx="2" fill="#EE741F"/>
<rect opacity="0.5" x="80" y="128" width="58" height="88" rx="2" fill="#EE741F"/>
<rect opacity="0.5" x="150" y="128" width="66" height="14" rx="2" fill="#EE741F"/>
<rect opacity="0.5" x="150" y="146" width="66" height="14" rx="2" fill="#EE741F"/>
<rect opacity="0.5" x="150" y="182" width="66" height="14" rx="2" fill="#EE741F"/>
<rect opacity="0.5" x="150" y="164" width="66" height="14" rx="2" fill="#EE741F"/>
<rect opacity="0.5" x="150" y="200" width="66" height="14" rx="2" fill="#EE741F"/>
<path d="M97.4258 263.448H91.5698V254.28H89.8578V265H97.4258V263.448ZM100.24 253.64C99.6156 253.64 99.1676 254.12 99.1676 254.68C99.1676 255.272 99.6156 255.704 100.24 255.704C100.848 255.704 101.296 255.272 101.296 254.68C101.296 254.12 100.848 253.64 100.24 253.64ZM101.072 265V257.064H99.4076V265H101.072ZM111.269 257.064H109.653V257.848C109.045 257.208 108.133 256.856 106.917 256.856C104.885 256.856 103.029 258.472 103.029 260.68C103.029 262.888 104.885 264.536 106.917 264.536C108.133 264.536 109.045 264.184 109.653 263.544V264.056C109.653 265.592 108.661 266.536 107.157 266.536C105.893 266.536 105.237 266.056 104.645 265.128L103.285 266.136C103.925 267.32 105.253 268.04 107.157 268.04C109.637 268.04 111.269 266.664 111.269 264.296V257.064ZM107.189 263.096C105.765 263.096 104.645 262.136 104.645 260.68C104.645 259.208 105.765 258.264 107.189 258.264C108.485 258.264 109.653 259.208 109.653 260.68C109.653 262.136 108.485 263.096 107.189 263.096ZM118.211 256.84C117.027 256.84 116.099 257.272 115.459 258.04V253.48H113.795V265H115.459V261.336C115.459 259.336 116.403 258.376 117.827 258.376C118.963 258.376 119.715 259.24 119.715 260.536V265H121.395V260.2C121.395 258.216 120.115 256.84 118.211 256.84ZM128.501 263.224C128.085 263.496 127.573 263.656 127.157 263.656C126.373 263.656 125.845 263.176 125.845 262.184V258.44H128.565V257.064H125.845V254.6H124.181V257.064H122.469V258.44H124.181V262.296C124.181 264.264 125.333 265.224 127.045 265.224C127.717 265.224 128.261 265.064 129.013 264.616L128.501 263.224ZM129.686 262.872C129.894 264.472 131.414 265.224 133.19 265.224C135.174 265.224 136.534 264.328 136.534 262.664C136.534 261.544 135.75 260.792 134.47 260.52L132.582 260.104C131.878 259.944 131.622 259.656 131.622 259.208C131.622 258.648 132.054 258.168 133.03 258.168C134.054 258.168 134.71 258.696 134.838 259.464L136.422 259.128C136.134 257.8 134.902 256.84 133.078 256.84C131.174 256.84 129.942 257.88 129.942 259.352C129.942 260.472 130.726 261.208 132.102 261.512L133.83 261.864C134.566 262.024 134.902 262.328 134.902 262.808C134.902 263.432 134.294 263.864 133.334 263.864C132.294 263.864 131.462 263.464 131.35 262.52L129.686 262.872ZM142.964 256.84C141.764 256.84 140.772 257.256 140.084 257.976V257.064H138.42V267.72H140.084V264.088C140.772 264.808 141.764 265.224 142.964 265.224C145.044 265.224 146.9 263.544 146.9 261.032C146.9 258.536 145.044 256.84 142.964 256.84ZM142.692 263.752C141.38 263.752 140.084 262.712 140.084 261.032C140.084 259.368 141.38 258.312 142.692 258.312C144.148 258.312 145.284 259.368 145.284 261.032C145.284 262.712 144.148 263.752 142.692 263.752ZM156.125 260.856C156.045 258.472 154.285 256.84 152.157 256.84C149.917 256.84 148.045 258.52 148.045 261.048C148.045 263.56 149.933 265.224 152.093 265.224C153.853 265.224 155.261 264.392 155.917 262.728L154.429 262.408C153.869 263.528 152.973 263.784 152.093 263.784C150.925 263.784 149.853 262.904 149.693 261.432H156.125V260.856ZM152.157 258.312C153.245 258.312 154.157 258.952 154.413 260.248H149.741C149.997 258.968 151.117 258.312 152.157 258.312ZM165.359 260.856C165.279 258.472 163.519 256.84 161.391 256.84C159.151 256.84 157.279 258.52 157.279 261.048C157.279 263.56 159.167 265.224 161.327 265.224C163.087 265.224 164.495 264.392 165.151 262.728L163.663 262.408C163.103 263.528 162.207 263.784 161.327 263.784C160.159 263.784 159.087 262.904 158.927 261.432H165.359V260.856ZM161.391 258.312C162.479 258.312 163.391 258.952 163.647 260.248H158.975C159.231 258.968 160.351 258.312 161.391 258.312ZM175.01 253.48H173.33V257.976C172.626 257.256 171.65 256.84 170.45 256.84C168.386 256.84 166.514 258.536 166.514 261.032C166.514 263.544 168.386 265.224 170.45 265.224C171.65 265.224 172.626 264.808 173.33 264.104V265H175.01V253.48ZM170.722 263.752C169.282 263.752 168.146 262.712 168.146 261.032C168.146 259.368 169.282 258.312 170.722 258.312C172.05 258.312 173.33 259.368 173.33 261.032C173.33 262.712 172.05 263.752 170.722 263.752ZM181.467 254.28V265H183.179V261.224H186.299C188.667 261.224 190.155 259.816 190.155 257.736C190.155 255.688 188.667 254.28 186.299 254.28H181.467ZM183.179 259.656V255.832H186.299C187.643 255.832 188.443 256.632 188.443 257.736C188.443 258.888 187.643 259.656 186.299 259.656H183.179ZM196.686 256.968C195.31 256.968 194.302 257.704 193.662 258.76V257.064H191.998V265H193.662V262.2C193.662 260.024 194.654 258.616 196.67 258.616C196.814 258.616 197.006 258.616 197.134 258.632L197.246 257.032C197.038 256.968 196.878 256.968 196.686 256.968ZM202.161 256.888C199.809 256.888 197.889 258.568 197.889 261.032C197.889 263.496 199.809 265.192 202.161 265.192C204.497 265.192 206.401 263.496 206.401 261.032C206.401 258.568 204.497 256.888 202.161 256.888ZM202.161 263.752C200.769 263.752 199.521 262.68 199.521 261.032C199.521 259.384 200.769 258.312 202.161 258.312C203.521 258.312 204.785 259.384 204.785 261.032C204.785 262.68 203.521 263.752 202.161 263.752Z" fill="#4D4D4D"/>
<rect x="264" y="64" width="168" height="168" rx="2" fill="#E8F1F7"/>
<rect x="280" y="128" width="62" height="38" rx="2" fill="#146EB4" fill-opacity="0.5"/>
<rect x="354" y="128" width="62" height="38" rx="2" fill="#146EB4" fill-opacity="0.5"/>
<rect x="280" y="178" width="62" height="38" rx="2" fill="#146EB4" fill-opacity="0.5"/>
<rect x="354" y="178" width="62" height="38" rx="2" fill="#146EB4" fill-opacity="0.5"/>
<rect x="280" y="80" width="136" height="36" rx="2" fill="#146EB4" fill-opacity="0.8"/>
<path d="M318.008 254.28H316.52L312.136 262.392L307.768 254.28H306.264V265H307.928V257.912L311.736 265H312.552L316.344 257.912V265H318.008V254.28ZM328.29 257.064H326.626V257.976C325.938 257.256 324.946 256.84 323.746 256.84C321.666 256.84 319.81 258.536 319.81 261.032C319.81 263.544 321.666 265.224 323.746 265.224C324.946 265.224 325.938 264.808 326.626 264.088V265H328.29V257.064ZM324.018 263.752C322.562 263.752 321.426 262.712 321.426 261.032C321.426 259.368 322.562 258.312 324.018 258.312C325.33 258.312 326.626 259.368 326.626 261.032C326.626 262.712 325.33 263.752 324.018 263.752ZM335.579 263.224C335.163 263.496 334.651 263.656 334.235 263.656C333.451 263.656 332.923 263.176 332.923 262.184V258.44H335.643V257.064H332.923V254.6H331.259V257.064H329.547V258.44H331.259V262.296C331.259 264.264 332.411 265.224 334.123 265.224C334.795 265.224 335.339 265.064 336.091 264.616L335.579 263.224ZM342.124 256.968C340.748 256.968 339.74 257.704 339.1 258.76V257.064H337.436V265H339.1V262.2C339.1 260.024 340.092 258.616 342.108 258.616C342.252 258.616 342.444 258.616 342.572 258.632L342.684 257.032C342.476 256.968 342.316 256.968 342.124 256.968ZM345.115 253.64C344.491 253.64 344.043 254.12 344.043 254.68C344.043 255.272 344.491 255.704 345.115 255.704C345.723 255.704 346.171 255.272 346.171 254.68C346.171 254.12 345.723 253.64 345.115 253.64ZM345.947 265V257.064H344.283V265H345.947ZM353.232 261.112L356.08 257.048H354.08L352 260.056L349.92 257.048H347.936L350.784 261.112L347.936 265H349.92L352 262.136L354.08 265H356.08L353.232 261.112ZM369.457 263.448H363.601V254.28H361.889V265H369.457V263.448ZM372.271 253.64C371.647 253.64 371.199 254.12 371.199 254.68C371.199 255.272 371.647 255.704 372.271 255.704C372.879 255.704 373.327 255.272 373.327 254.68C373.327 254.12 372.879 253.64 372.271 253.64ZM373.103 265V257.064H371.439V265H373.103ZM380.516 263.224C380.1 263.496 379.588 263.656 379.172 263.656C378.388 263.656 377.86 263.176 377.86 262.184V258.44H380.58V257.064H377.86V254.6H376.196V257.064H374.484V258.44H376.196V262.296C376.196 264.264 377.348 265.224 379.06 265.224C379.732 265.224 380.276 265.064 381.028 264.616L380.516 263.224ZM389.562 260.856C389.482 258.472 387.722 256.84 385.594 256.84C383.354 256.84 381.482 258.52 381.482 261.048C381.482 263.56 383.37 265.224 385.53 265.224C387.29 265.224 388.698 264.392 389.354 262.728L387.866 262.408C387.306 263.528 386.41 263.784 385.53 263.784C384.362 263.784 383.29 262.904 383.13 261.432H389.562V260.856ZM385.594 258.312C386.682 258.312 387.594 258.952 387.85 260.248H383.178C383.434 258.968 384.554 258.312 385.594 258.312Z" fill="#4D4D4D"/>
<defs>
<filter id="filter0_d" x="12" y="16.0001" width="472" height="312" filterUnits="userSpaceOnUse" color-interpolation-filters="sRGB">
<feFlood flood-opacity="0" result="BackgroundImageFix"/>
<feColorMatrix in="SourceAlpha" type="matrix" values="0 0 0 0 0 0 0 0 0 0 0 0 0 0 0 0 0 0 127 0"/>
<feOffset dy="4"/>
<feGaussianBlur stdDeviation="10"/>
<feColorMatrix type="matrix" values="0 0 0 0 0.596078 0 0 0 0 0.596078 0 0 0 0 0.596078 0 0 0 0.2 0"/>
<feBlend mode="normal" in2="BackgroundImageFix" result="effect1_dropShadow"/>
<feBlend mode="normal" in="SourceGraphic" in2="effect1_dropShadow" result="shape"/>
</filter>
</defs>
</svg>
