<svg width="484" height="336" viewBox="0 0 484 336" fill="none" xmlns="http://www.w3.org/2000/svg">
<path d="M384 336L6 336C2.68628 336 2.34843e-07 333.314 5.24537e-07 330L2.88495e-05 5.99997C2.91392e-05 2.68625 2.68631 -3.33355e-05 6.00003 -3.30458e-05L384 0L384 336Z" fill="#146EB4" fill-opacity="0.1"/>
<path d="M383.5 335.5L6 335.5C2.96243 335.5 0.5 333.038 0.500001 330L0.500029 5.99997C0.500029 2.9624 2.96246 0.499967 6.00003 0.499967L383.5 0.5L383.5 335.5Z" stroke="#146EB4" stroke-opacity="0.5"/>
<g filter="url(#filter0_d)">
<rect x="32" y="32" width="432" height="272" rx="6" fill="white"/>
</g>
<rect x="64.5" y="64.5" width="175" height="95" rx="3.5" fill="white"/>
<rect x="76" y="76" width="36" height="36" rx="4" fill="#F3B352"/>
<path d="M91.6987 82.7187L93.5516 83.5609C93.8355 83.6908 94.1599 83.6899 94.4419 83.5609H94.4429L96.2957 82.7187C97.0494 82.3779 97.9204 82.3606 98.6856 82.6782C99.4508 82.9949 100.057 83.6215 100.348 84.3973L101.063 86.3031C101.173 86.5938 101.403 86.8238 101.693 86.9326L103.598 87.6477C104.374 87.9384 105.001 88.5448 105.317 89.31C105.635 90.0752 105.62 90.9463 105.277 91.6999L104.435 93.5528C104.306 93.8357 104.306 94.1601 104.435 94.4431L105.277 96.2969C105.619 97.0505 105.634 97.9216 105.317 98.6868C105.001 99.452 104.374 100.058 103.598 100.349L101.693 101.064C101.402 101.174 101.172 101.404 101.063 101.695L100.348 103.6C100.057 104.375 99.4508 105.002 98.6856 105.319C97.9204 105.636 97.0484 105.62 96.2957 105.278L94.4429 104.436C94.1589 104.306 93.8345 104.307 93.5525 104.436L91.6997 105.279C91.307 105.457 90.8825 105.548 90.4571 105.548C90.0663 105.548 89.6755 105.472 89.3088 105.32C88.5436 105.003 87.9372 104.376 87.6465 103.6L86.9314 101.695C86.8217 101.404 86.5916 101.174 86.3009 101.065L84.3961 100.35C83.6203 100.059 82.9937 99.453 82.6771 98.6878C82.3594 97.9226 82.3748 97.0515 82.7175 96.2979L83.5597 94.445C83.6887 94.162 83.6887 93.8377 83.5597 93.5547L82.7175 91.6999C82.3758 90.9463 82.3604 90.0752 82.6771 89.31C82.9937 88.5448 83.6203 87.9384 84.3961 87.6477L86.3019 86.9326C86.5926 86.8228 86.8226 86.5928 86.9314 86.3021L87.6465 84.3973C87.9372 83.6215 88.5436 82.9949 89.3088 82.6782C90.074 82.3606 90.9451 82.376 91.6987 82.7187ZM97.0927 84.4705L95.2398 85.3127C94.4496 85.6717 93.5448 85.6707 92.7556 85.3127L90.9037 84.4705C90.7603 84.406 90.6092 84.3732 90.458 84.3732C90.3185 84.3732 90.1789 84.4012 90.0451 84.456C89.766 84.5715 89.5542 84.791 89.4484 85.073L88.7342 86.9778C88.43 87.7892 87.789 88.4302 86.9776 88.7344L85.0728 89.4486C84.7907 89.5545 84.5713 89.7672 84.4558 90.0453C84.3403 90.3245 84.3451 90.6296 84.4702 90.9039L85.3124 92.7568C85.6714 93.5451 85.6714 94.4518 85.3124 95.241L84.4712 97.0929C84.3461 97.3672 84.3412 97.6723 84.4567 97.9505C84.5723 98.2296 84.7917 98.4414 85.0737 98.5473L86.9785 99.2624C87.7899 99.5666 88.431 100.207 88.7351 101.019L89.4493 102.924C89.5552 103.206 89.7679 103.425 90.0461 103.541C90.3252 103.657 90.6294 103.651 90.9037 103.526L92.7565 102.684C93.5448 102.325 94.4496 102.324 95.2408 102.684L97.0927 103.525C97.3679 103.65 97.6721 103.656 97.9503 103.54C98.2294 103.424 98.4412 103.205 98.547 102.923L99.2622 101.018C99.5663 100.207 100.206 99.5656 101.019 99.2614L102.924 98.5473C103.206 98.4414 103.425 98.2287 103.541 97.9505C103.656 97.6714 103.651 97.3672 103.526 97.0929L102.684 95.2401C102.325 94.4518 102.325 93.5451 102.684 92.7558L103.525 90.9039C103.65 90.6296 103.655 90.3245 103.54 90.0463C103.424 89.7672 103.205 89.5554 102.923 89.4496L101.018 88.7344C100.206 88.4302 99.5654 87.7902 99.2612 86.9778L98.547 85.073C98.4412 84.791 98.2284 84.5715 97.9503 84.456C97.6721 84.3405 97.3679 84.3453 97.0927 84.4705ZM96.8857 94.9609C97.9474 94.9609 98.8108 95.8243 98.8108 96.886C98.8108 97.9476 97.9474 98.811 96.8857 98.811C95.8241 98.811 94.9607 97.9476 94.9607 96.886C94.9607 95.8243 95.8241 94.9609 96.8857 94.9609ZM97.4632 89.3783C97.8887 89.6969 97.9743 90.3004 97.6557 90.7258L91.8806 98.426C91.692 98.6782 91.4023 98.811 91.1097 98.811C90.9095 98.811 90.7064 98.7484 90.5331 98.6185C90.1077 98.2999 90.022 97.6964 90.3406 97.271L96.1157 89.5708C96.4353 89.1464 97.0378 89.0588 97.4632 89.3783ZM91.1106 89.1858C92.1723 89.1858 93.0357 90.0492 93.0357 91.1109C93.0357 92.1725 92.1723 93.0359 91.1106 93.0359C90.049 93.0359 89.1856 92.1725 89.1856 91.1109C89.1856 90.0492 90.049 89.1858 91.1106 89.1858Z" fill="white" stroke="white" stroke-width="0.1"/>
<path d="M81.008 130.28H77.264V141H81.008C84.656 141 86.928 138.76 86.928 135.64C86.928 132.52 84.656 130.28 81.008 130.28ZM81.008 139.448H78.976V131.832H81.008C83.616 131.832 85.2 133.416 85.2 135.64C85.2 137.864 83.616 139.448 81.008 139.448ZM89.9115 129.64C89.2875 129.64 88.8395 130.12 88.8395 130.68C88.8395 131.272 89.2875 131.704 89.9115 131.704C90.5195 131.704 90.9675 131.272 90.9675 130.68C90.9675 130.12 90.5195 129.64 89.9115 129.64ZM90.7435 133.064H89.0795V141H90.7435V133.064ZM94.381 138.52L92.717 138.872C92.925 140.472 94.445 141.224 96.221 141.224C98.205 141.224 99.565 140.328 99.565 138.664C99.565 137.544 98.781 136.792 97.501 136.52L95.613 136.104C94.909 135.944 94.653 135.656 94.653 135.208C94.653 134.648 95.085 134.168 96.061 134.168C97.085 134.168 97.741 134.696 97.869 135.464L99.453 135.128C99.165 133.8 97.933 132.84 96.109 132.84C94.205 132.84 92.973 133.88 92.973 135.352C92.973 136.472 93.757 137.208 95.133 137.512L96.861 137.864C97.597 138.024 97.933 138.328 97.933 138.808C97.933 139.432 97.325 139.864 96.365 139.864C95.325 139.864 94.493 139.464 94.381 138.52ZM104.956 139.688C103.484 139.688 102.396 138.648 102.396 137.032C102.396 135.464 103.484 134.376 104.956 134.376C106.012 134.376 106.924 134.92 107.228 136.088L108.828 135.624C108.332 133.928 106.748 132.84 104.956 132.84C102.684 132.84 100.764 134.552 100.764 137.032C100.764 139.544 102.684 141.224 104.956 141.224C106.796 141.224 108.396 140.136 108.828 138.424L107.292 138.024C106.908 139.176 106.012 139.688 104.956 139.688ZM114.27 132.888C111.918 132.888 109.998 134.568 109.998 137.032C109.998 139.496 111.918 141.192 114.27 141.192C116.606 141.192 118.51 139.496 118.51 137.032C118.51 134.568 116.606 132.888 114.27 132.888ZM114.27 139.752C112.878 139.752 111.63 138.68 111.63 137.032C111.63 135.384 112.878 134.312 114.27 134.312C115.63 134.312 116.894 135.384 116.894 137.032C116.894 138.68 115.63 139.752 114.27 139.752ZM126.101 133.064V136.728C126.101 138.728 125.173 139.688 123.749 139.688C122.597 139.688 121.845 138.808 121.845 137.512V133.064H120.181V137.848C120.181 139.848 121.445 141.224 123.365 141.224C124.533 141.224 125.461 140.792 126.101 140.024V141H127.765V133.064H126.101ZM134.711 132.84C133.527 132.84 132.599 133.272 131.959 134.04V133.064H130.295V141H131.959V137.336C131.959 135.336 132.903 134.376 134.327 134.376C135.463 134.376 136.215 135.24 136.215 136.536V141H137.895V136.2C137.895 134.216 136.615 132.84 134.711 132.84ZM144.985 139.224C144.569 139.496 144.057 139.656 143.641 139.656C142.857 139.656 142.329 139.176 142.329 138.184V134.44H145.049V133.064H142.329V130.6H140.665V133.064H138.953V134.44H140.665V138.296C140.665 140.264 141.817 141.224 143.529 141.224C144.201 141.224 144.745 141.064 145.497 140.616L144.985 139.224ZM155.883 139.608C153.723 139.608 152.027 137.896 152.027 135.64C152.027 133.384 153.723 131.672 155.883 131.672C157.563 131.672 158.939 132.568 159.419 134.376L161.083 133.896C160.475 131.528 158.411 130.056 155.883 130.056C152.763 130.056 150.299 132.52 150.299 135.64C150.299 138.776 152.763 141.224 155.883 141.224C158.411 141.224 160.491 139.768 161.083 137.256L159.419 136.904C158.939 138.712 157.563 139.608 155.883 139.608ZM166.692 132.888C164.34 132.888 162.42 134.568 162.42 137.032C162.42 139.496 164.34 141.192 166.692 141.192C169.028 141.192 170.932 139.496 170.932 137.032C170.932 134.568 169.028 132.888 166.692 132.888ZM166.692 139.752C165.3 139.752 164.052 138.68 164.052 137.032C164.052 135.384 165.3 134.312 166.692 134.312C168.052 134.312 169.316 135.384 169.316 137.032C169.316 138.68 168.052 139.752 166.692 139.752ZM178.523 133.064V136.728C178.523 138.728 177.595 139.688 176.171 139.688C175.019 139.688 174.267 138.808 174.267 137.512V133.064H172.603V137.848C172.603 139.848 173.867 141.224 175.787 141.224C176.955 141.224 177.883 140.792 178.523 140.024V141H180.187V133.064H178.523ZM187.261 132.84C186.061 132.84 185.069 133.256 184.381 133.976V133.064H182.717V144.2H184.381V140.088C185.069 140.808 186.061 141.224 187.261 141.224C189.341 141.224 191.197 139.544 191.197 137.032C191.197 134.536 189.341 132.84 187.261 132.84ZM186.989 139.752C185.677 139.752 184.381 138.712 184.381 137.032C184.381 135.368 185.677 134.312 186.989 134.312C188.445 134.312 189.581 135.368 189.581 137.032C189.581 138.712 188.445 139.752 186.989 139.752ZM196.614 132.888C194.262 132.888 192.342 134.568 192.342 137.032C192.342 139.496 194.262 141.192 196.614 141.192C198.95 141.192 200.854 139.496 200.854 137.032C200.854 134.568 198.95 132.888 196.614 132.888ZM196.614 139.752C195.222 139.752 193.974 138.68 193.974 137.032C193.974 135.384 195.222 134.312 196.614 134.312C197.974 134.312 199.238 135.384 199.238 137.032C199.238 138.68 197.974 139.752 196.614 139.752ZM207.133 132.84C205.949 132.84 205.021 133.272 204.381 134.04V133.064H202.717V141H204.381V137.336C204.381 135.336 205.325 134.376 206.749 134.376C207.885 134.376 208.637 135.24 208.637 136.536V141H210.317V136.2C210.317 134.216 209.037 132.84 207.133 132.84ZM213.631 138.52L211.967 138.872C212.175 140.472 213.695 141.224 215.471 141.224C217.455 141.224 218.815 140.328 218.815 138.664C218.815 137.544 218.031 136.792 216.751 136.52L214.863 136.104C214.159 135.944 213.903 135.656 213.903 135.208C213.903 134.648 214.335 134.168 215.311 134.168C216.335 134.168 216.991 134.696 217.119 135.464L218.703 135.128C218.415 133.8 217.183 132.84 215.359 132.84C213.455 132.84 212.223 133.88 212.223 135.352C212.223 136.472 213.007 137.208 214.383 137.512L216.111 137.864C216.847 138.024 217.183 138.328 217.183 138.808C217.183 139.432 216.575 139.864 215.615 139.864C214.575 139.864 213.743 139.464 213.631 138.52Z" fill="#1A181E"/>
<rect x="64.5" y="64.5" width="175" height="95" rx="3.5" stroke="#F2F2F2"/>
<rect x="64.5" y="176.5" width="175" height="95" rx="3.5" fill="white"/>
<rect x="76" y="188" width="36" height="36" rx="4" fill="#EF7016"/>
<g clip-path="url(#clip0)">
<path d="M99.8295 197.688C99.9573 197.78 100.033 197.933 100.033 198.096V213.951C100.033 214.115 99.9573 214.267 99.8295 214.359C99.7496 214.417 99.6575 214.447 99.5635 214.447C99.5062 214.447 99.4498 214.436 99.3944 214.414L87.2584 209.492L83.9037 209.492C82.8107 209.492 81.9219 208.603 81.9219 207.51V204.537C81.9219 203.444 82.8107 202.556 83.9037 202.556L87.2553 202.555L99.3944 197.634C99.54 197.574 99.7007 197.596 99.8295 197.688ZM99.0936 198.818L87.8674 203.37V208.676L99.0936 213.23V198.818ZM102.878 209.575L105.851 211.557C106.078 211.709 106.14 212.017 105.989 212.244C105.893 212.387 105.736 212.465 105.576 212.465C105.481 212.465 105.386 212.438 105.302 212.382L102.329 210.4C102.102 210.248 102.04 209.94 102.191 209.713C102.344 209.485 102.653 209.425 102.878 209.575ZM86.8765 203.546H83.9037C83.3567 203.546 82.9128 203.99 82.9128 204.537V207.51C82.9128 208.057 83.3567 208.501 83.9037 208.501H86.8765V203.546ZM105.576 206.024C105.85 206.024 106.072 206.246 106.072 206.519C106.072 206.793 105.85 207.015 105.576 207.015H102.604C102.33 207.015 102.108 206.793 102.108 206.519C102.108 206.246 102.33 206.024 102.604 206.024H105.576ZM105.989 200.795C106.14 201.022 106.079 201.33 105.851 201.481L102.878 203.463C102.794 203.52 102.699 203.546 102.604 203.546C102.444 203.546 102.288 203.469 102.191 203.325C102.04 203.099 102.101 202.79 102.329 202.639L105.302 200.657C105.528 200.506 105.836 200.566 105.989 200.795Z" fill="white" stroke="white" stroke-width="0.9"/>
</g>
<path d="M89.008 242.28H87.52L83.136 250.392L78.768 242.28H77.264V253H78.928V245.912L82.736 253H83.552L87.344 245.912V253H89.008V242.28ZM99.2896 245.064H97.6256V245.976C96.9376 245.256 95.9456 244.84 94.7456 244.84C92.6656 244.84 90.8096 246.536 90.8096 249.032C90.8096 251.544 92.6656 253.224 94.7456 253.224C95.9456 253.224 96.9376 252.808 97.6256 252.088V253H99.2896V245.064ZM95.0176 251.752C93.5616 251.752 92.4256 250.712 92.4256 249.032C92.4256 247.368 93.5616 246.312 95.0176 246.312C96.3296 246.312 97.6256 247.368 97.6256 249.032C97.6256 250.712 96.3296 251.752 95.0176 251.752ZM106.499 244.968C105.123 244.968 104.115 245.704 103.475 246.76V245.064H101.811V253H103.475V250.2C103.475 248.024 104.467 246.616 106.483 246.616C106.627 246.616 106.819 246.616 106.947 246.632L107.059 245.032C106.851 244.968 106.691 244.968 106.499 244.968ZM116.594 253L111.97 248.904L116.13 245.064H114.002L110.69 248.056H110.194V241.48H108.53V253H110.194V249.704H110.674L114.338 253H116.594ZM124.844 248.856C124.764 246.472 123.004 244.84 120.876 244.84C118.636 244.84 116.764 246.52 116.764 249.048C116.764 251.56 118.652 253.224 120.812 253.224C122.572 253.224 123.98 252.392 124.635 250.728L123.148 250.408C122.588 251.528 121.692 251.784 120.812 251.784C119.644 251.784 118.572 250.904 118.412 249.432H124.844V248.856ZM120.876 246.312C121.964 246.312 122.876 246.952 123.132 248.248H118.46C118.716 246.968 119.836 246.312 120.876 246.312ZM131.454 251.224C131.038 251.496 130.526 251.656 130.11 251.656C129.326 251.656 128.798 251.176 128.798 250.184V246.44H131.518V245.064H128.798V242.6H127.134V245.064H125.422V246.44H127.134V250.296C127.134 252.264 128.286 253.224 129.998 253.224C130.67 253.224 131.214 253.064 131.966 252.616L131.454 251.224ZM134.271 241.64C133.647 241.64 133.199 242.12 133.199 242.68C133.199 243.272 133.647 243.704 134.271 243.704C134.879 243.704 135.327 243.272 135.327 242.68C135.327 242.12 134.879 241.64 134.271 241.64ZM135.103 253V245.064H133.439V253H135.103ZM142.164 244.84C140.98 244.84 140.052 245.272 139.412 246.04V245.064H137.748V253H139.412V249.336C139.412 247.336 140.356 246.376 141.78 246.376C142.916 246.376 143.668 247.24 143.668 248.536V253H145.348V248.2C145.348 246.216 144.068 244.84 142.164 244.84ZM155.222 245.064H153.606V245.848C152.998 245.208 152.086 244.856 150.87 244.856C148.838 244.856 146.982 246.472 146.982 248.68C146.982 250.888 148.838 252.536 150.87 252.536C152.086 252.536 152.998 252.184 153.606 251.544V252.056C153.606 253.592 152.614 254.536 151.11 254.536C149.846 254.536 149.19 254.056 148.598 253.128L147.238 254.136C147.878 255.32 149.206 256.04 151.11 256.04C153.59 256.04 155.222 254.664 155.222 252.296V245.064ZM151.142 251.096C149.718 251.096 148.598 250.136 148.598 248.68C148.598 247.208 149.718 246.264 151.142 246.264C152.438 246.264 153.606 247.208 153.606 248.68C153.606 250.136 152.438 251.096 151.142 251.096ZM161.702 242.28V253H165.446C169.094 253 171.366 250.76 171.366 247.64C171.366 244.52 169.094 242.28 165.446 242.28H161.702ZM163.414 251.448V243.832H165.446C168.054 243.832 169.638 245.416 169.638 247.64C169.638 249.864 168.054 251.448 165.446 251.448H163.414ZM180.781 248.856C180.701 246.472 178.941 244.84 176.813 244.84C174.573 244.84 172.701 246.52 172.701 249.048C172.701 251.56 174.589 253.224 176.749 253.224C178.509 253.224 179.917 252.392 180.573 250.728L179.085 250.408C178.525 251.528 177.629 251.784 176.749 251.784C175.581 251.784 174.509 250.904 174.349 249.432H180.781V248.856ZM176.813 246.312C177.901 246.312 178.813 246.952 179.069 248.248H174.397C174.653 246.968 175.773 246.312 176.813 246.312ZM181.951 250.872C182.159 252.472 183.679 253.224 185.455 253.224C187.439 253.224 188.799 252.328 188.799 250.664C188.799 249.544 188.015 248.792 186.735 248.52L184.847 248.104C184.143 247.944 183.887 247.656 183.887 247.208C183.887 246.648 184.319 246.168 185.295 246.168C186.319 246.168 186.975 246.696 187.103 247.464L188.687 247.128C188.399 245.8 187.167 244.84 185.343 244.84C183.439 244.84 182.207 245.88 182.207 247.352C182.207 248.472 182.991 249.208 184.367 249.512L186.095 249.864C186.831 250.024 187.167 250.328 187.167 250.808C187.167 251.432 186.559 251.864 185.599 251.864C184.559 251.864 183.727 251.464 183.615 250.52L181.951 250.872ZM191.646 241.64C191.022 241.64 190.574 242.12 190.574 242.68C190.574 243.272 191.022 243.704 191.646 243.704C192.254 243.704 192.702 243.272 192.702 242.68C192.702 242.12 192.254 241.64 191.646 241.64ZM192.478 253V245.064H190.814V253H192.478ZM202.675 245.064H201.059V245.848C200.451 245.208 199.539 244.856 198.323 244.856C196.291 244.856 194.435 246.472 194.435 248.68C194.435 250.888 196.291 252.536 198.323 252.536C199.539 252.536 200.451 252.184 201.059 251.544V252.056C201.059 253.592 200.067 254.536 198.563 254.536C197.299 254.536 196.643 254.056 196.051 253.128L194.691 254.136C195.331 255.32 196.659 256.04 198.563 256.04C201.043 256.04 202.675 254.664 202.675 252.296V245.064ZM198.595 251.096C197.171 251.096 196.051 250.136 196.051 248.68C196.051 247.208 197.171 246.264 198.595 246.264C199.891 246.264 201.059 247.208 201.059 248.68C201.059 250.136 199.891 251.096 198.595 251.096ZM209.618 244.84C208.434 244.84 207.506 245.272 206.866 246.04V245.064H205.202V253H206.866V249.336C206.866 247.336 207.81 246.376 209.234 246.376C210.37 246.376 211.122 247.24 211.122 248.536V253H212.802V248.2C212.802 246.216 211.522 244.84 209.618 244.84ZM214.451 250.872C214.659 252.472 216.179 253.224 217.955 253.224C219.939 253.224 221.299 252.328 221.299 250.664C221.299 249.544 220.515 248.792 219.235 248.52L217.347 248.104C216.643 247.944 216.387 247.656 216.387 247.208C216.387 246.648 216.819 246.168 217.795 246.168C218.819 246.168 219.475 246.696 219.603 247.464L221.187 247.128C220.899 245.8 219.667 244.84 217.843 244.84C215.939 244.84 214.707 245.88 214.707 247.352C214.707 248.472 215.491 249.208 216.867 249.512L218.595 249.864C219.331 250.024 219.667 250.328 219.667 250.808C219.667 251.432 219.059 251.864 218.099 251.864C217.059 251.864 216.227 251.464 216.115 250.52L214.451 250.872Z" fill="#1A181E"/>
<rect x="64.5" y="176.5" width="175" height="95" rx="3.5" stroke="#F2F2F2"/>
<rect x="256.5" y="64.5" width="175" height="95" rx="3.5" fill="white"/>
<rect x="268" y="76" width="36" height="36" rx="4" fill="#61D463"/>
<path d="M285.894 82.4504C279.573 82.4504 274.449 87.5745 274.449 93.8954C274.449 100.216 279.573 105.34 285.894 105.34C292.215 105.34 297.339 100.216 297.339 93.8954C297.339 87.5745 292.215 82.4504 285.894 82.4504ZM285.894 84.3404C291.171 84.3404 295.449 88.6183 295.449 93.8954C295.449 99.1725 291.171 103.45 285.894 103.45C280.617 103.45 276.339 99.1725 276.339 93.8954C276.339 88.6183 280.617 84.3404 285.894 84.3404Z" fill="white" stroke="#61D463" stroke-width="0.1"/>
<path d="M290.175 88.2254H283.091C282.675 88.2254 282.336 88.5641 282.336 88.9802C282.336 89.3963 282.675 89.735 283.091 89.735H285.12L285.291 89.7414C286.195 89.8092 286.967 90.4096 287.27 91.2379L283.091 91.2384C282.675 91.2384 282.336 91.5771 282.336 91.9932L282.343 92.0955C282.393 92.4634 282.709 92.748 283.091 92.748L287.273 92.7478L287.267 92.7705C286.947 93.6601 286.098 94.2826 285.118 94.285L283.094 94.285C282.668 94.2925 282.332 94.6375 282.339 95.0573C282.339 95.2526 282.424 95.4458 282.566 95.5878L287.64 100.387C287.941 100.673 288.418 100.659 288.705 100.357L288.782 100.26C288.985 99.9567 288.947 99.5492 288.68 99.2887L284.984 95.7938L285.116 95.7945L285.317 95.7893C286.978 95.7018 288.373 94.5357 288.786 92.9612L288.834 92.7478L290.175 92.748C290.591 92.748 290.93 92.4093 290.93 91.9932L290.923 91.891C290.873 91.523 290.556 91.2384 290.175 91.2384L288.831 91.2379L288.818 91.1701C288.7 90.6578 288.475 90.1738 288.165 89.7558L288.148 89.7343L290.175 89.735C290.591 89.735 290.93 89.3963 290.93 88.9802C290.93 88.5641 290.591 88.2254 290.175 88.2254Z" fill="white"/>
<path d="M274.352 130.056C271.216 130.056 268.768 132.536 268.768 135.656C268.768 138.76 271.216 141.224 274.352 141.224C277.488 141.224 279.952 138.76 279.952 135.656C279.952 132.536 277.488 130.056 274.352 130.056ZM274.352 139.608C272.192 139.608 270.496 137.912 270.496 135.656C270.496 133.384 272.192 131.672 274.352 131.672C276.528 131.672 278.224 133.384 278.224 135.656C278.224 137.912 276.528 139.608 274.352 139.608ZM286.383 132.84C285.199 132.84 284.271 133.272 283.631 134.04V133.064H281.967V141H283.631V137.336C283.631 135.336 284.575 134.376 285.999 134.376C287.135 134.376 287.887 135.24 287.887 136.536V141H289.567V136.2C289.567 134.216 288.287 132.84 286.383 132.84ZM293.553 141V129.48H291.889V141H293.553ZM297.037 129.64C296.413 129.64 295.965 130.12 295.965 130.68C295.965 131.272 296.413 131.704 297.037 131.704C297.645 131.704 298.093 131.272 298.093 130.68C298.093 130.12 297.645 129.64 297.037 129.64ZM297.869 141V133.064H296.205V141H297.869ZM304.93 132.84C303.746 132.84 302.818 133.272 302.178 134.04V133.064H300.514V141H302.178V137.336C302.178 135.336 303.122 134.376 304.546 134.376C305.682 134.376 306.434 135.24 306.434 136.536V141H308.114V136.2C308.114 134.216 306.834 132.84 304.93 132.84ZM317.828 136.856C317.748 134.472 315.988 132.84 313.86 132.84C311.62 132.84 309.748 134.52 309.748 137.048C309.748 139.56 311.636 141.224 313.796 141.224C315.556 141.224 316.964 140.392 317.62 138.728L316.132 138.408C315.572 139.528 314.676 139.784 313.796 139.784C312.628 139.784 311.556 138.904 311.396 137.432H317.828V136.856ZM313.86 134.312C314.948 134.312 315.86 134.952 316.116 136.248H311.444C311.7 134.968 312.82 134.312 313.86 134.312ZM323.623 130.28V141H325.335V137.224H328.455C330.823 137.224 332.311 135.816 332.311 133.736C332.311 131.688 330.823 130.28 328.455 130.28H323.623ZM325.335 135.656V131.832H328.455C329.799 131.832 330.599 132.632 330.599 133.736C330.599 134.888 329.799 135.656 328.455 135.656H325.335ZM341.915 133.064H340.251V133.976C339.563 133.256 338.571 132.84 337.371 132.84C335.291 132.84 333.435 134.536 333.435 137.032C333.435 139.544 335.291 141.224 337.371 141.224C338.571 141.224 339.563 140.808 340.251 140.088V141H341.915V133.064ZM337.643 139.752C336.187 139.752 335.051 138.712 335.051 137.032C335.051 135.368 336.187 134.312 337.643 134.312C338.955 134.312 340.251 135.368 340.251 137.032C340.251 138.712 338.955 139.752 337.643 139.752ZM352.132 133.048H350.276L347.732 138.776L345.252 133.048H343.396L346.82 140.808L345.524 143.72H347.38L352.132 133.048ZM363.416 132.84C362.104 132.84 361.096 133.4 360.456 134.296C359.944 133.368 358.952 132.84 357.816 132.84C356.68 132.84 355.848 133.256 355.272 133.96V133.064H353.608V141H355.272V137.064C355.272 135.288 356.104 134.376 357.384 134.376C358.408 134.376 359.176 135.112 359.176 136.28V141H360.84V137.064C360.84 135.288 361.688 134.376 362.984 134.376C364.008 134.376 364.776 135.112 364.776 136.28V141H366.424V135.944C366.424 134.072 365.064 132.84 363.416 132.84ZM376.172 136.856C376.092 134.472 374.332 132.84 372.204 132.84C369.964 132.84 368.092 134.52 368.092 137.048C368.092 139.56 369.98 141.224 372.14 141.224C373.9 141.224 375.308 140.392 375.964 138.728L374.476 138.408C373.916 139.528 373.02 139.784 372.14 139.784C370.972 139.784 369.9 138.904 369.74 137.432H376.172V136.856ZM372.204 134.312C373.292 134.312 374.204 134.952 374.46 136.248H369.788C370.044 134.968 371.164 134.312 372.204 134.312ZM382.43 132.84C381.246 132.84 380.318 133.272 379.678 134.04V133.064H378.014V141H379.678V137.336C379.678 135.336 380.622 134.376 382.046 134.376C383.182 134.376 383.934 135.24 383.934 136.536V141H385.614V136.2C385.614 134.216 384.334 132.84 382.43 132.84ZM392.704 139.224C392.288 139.496 391.776 139.656 391.36 139.656C390.576 139.656 390.048 139.176 390.048 138.184V134.44H392.768V133.064H390.048V130.6H388.384V133.064H386.672V134.44H388.384V138.296C388.384 140.264 389.536 141.224 391.248 141.224C391.92 141.224 392.464 141.064 393.216 140.616L392.704 139.224ZM393.889 138.872C394.097 140.472 395.617 141.224 397.393 141.224C399.377 141.224 400.737 140.328 400.737 138.664C400.737 137.544 399.953 136.792 398.673 136.52L396.785 136.104C396.081 135.944 395.825 135.656 395.825 135.208C395.825 134.648 396.257 134.168 397.233 134.168C398.257 134.168 398.913 134.696 399.041 135.464L400.625 135.128C400.337 133.8 399.105 132.84 397.281 132.84C395.377 132.84 394.145 133.88 394.145 135.352C394.145 136.472 394.929 137.208 396.305 137.512L398.033 137.864C398.769 138.024 399.105 138.328 399.105 138.808C399.105 139.432 398.497 139.864 397.537 139.864C396.497 139.864 395.665 139.464 395.553 138.52L393.889 138.872Z" fill="#1A181E"/>
<rect x="256.5" y="64.5" width="175" height="95" rx="3.5" stroke="#F2F2F2"/>
<rect x="256.5" y="176.5" width="175" height="95" rx="3.5" fill="white"/>
<rect x="268" y="188" width="36" height="36" rx="4" fill="#DF1E5B"/>
<path d="M283.345 194.975C283.82 194.975 284.206 195.361 284.206 195.837V201.22C284.206 203.181 282.82 204.823 280.976 205.22V216.164C280.976 216.64 280.59 217.025 280.115 217.025C279.639 217.025 279.253 216.64 279.253 216.164V205.22C277.41 204.823 276.023 203.181 276.023 201.22V195.837C276.023 195.361 276.409 194.975 276.885 194.975C277.36 194.975 277.746 195.361 277.746 195.837V201.22C277.746 202.526 278.809 203.589 280.115 203.589C281.421 203.589 282.483 202.526 282.483 201.22V195.837C282.483 195.361 282.869 194.975 283.345 194.975ZM291.786 194.975C292.933 194.975 294.012 195.791 294.825 197.273C295.484 198.474 295.877 199.949 295.877 201.22C295.877 203.181 294.491 204.823 292.647 205.22V216.164C292.647 216.64 292.262 217.025 291.786 217.025C291.31 217.025 290.925 216.64 290.925 216.164V205.22C289.081 204.823 287.695 203.181 287.695 201.22C287.695 199.949 288.088 198.474 288.747 197.273C289.56 195.791 290.639 194.975 291.786 194.975ZM291.786 196.698C291.318 196.698 290.732 197.236 290.257 198.101C289.739 199.046 289.417 200.241 289.417 201.22C289.417 202.526 290.48 203.589 291.786 203.589C293.092 203.589 294.155 202.526 294.155 201.22C294.155 200.241 293.833 199.046 293.315 198.101C292.84 197.236 292.254 196.698 291.786 196.698ZM280.115 194.975C280.59 194.975 280.976 195.361 280.976 195.837V201.091C280.976 201.567 280.59 201.952 280.115 201.952C279.639 201.952 279.253 201.567 279.253 201.091V195.837C279.253 195.361 279.639 194.975 280.115 194.975Z" fill="white"/>
<path d="M278.48 253L274.608 248.712C276.64 248.6 277.984 247.352 277.984 245.512C277.984 243.576 276.512 242.28 274.304 242.28H269.264V253H270.976V248.728H272.528L276.352 253H278.48ZM270.976 247.176V243.832H274.304C275.488 243.832 276.272 244.504 276.272 245.512C276.272 246.504 275.488 247.176 274.304 247.176H270.976ZM287.156 248.856C287.076 246.472 285.316 244.84 283.188 244.84C280.948 244.84 279.076 246.52 279.076 249.048C279.076 251.56 280.964 253.224 283.124 253.224C284.884 253.224 286.292 252.392 286.948 250.728L285.46 250.408C284.9 251.528 284.004 251.784 283.124 251.784C281.956 251.784 280.884 250.904 280.724 249.432H287.156V248.856ZM283.188 246.312C284.276 246.312 285.188 246.952 285.444 248.248H280.772C281.028 246.968 282.148 246.312 283.188 246.312ZM288.326 250.872C288.534 252.472 290.054 253.224 291.83 253.224C293.814 253.224 295.174 252.328 295.174 250.664C295.174 249.544 294.39 248.792 293.11 248.52L291.222 248.104C290.518 247.944 290.262 247.656 290.262 247.208C290.262 246.648 290.694 246.168 291.67 246.168C292.694 246.168 293.35 246.696 293.478 247.464L295.062 247.128C294.774 245.8 293.542 244.84 291.718 244.84C289.814 244.84 288.582 245.88 288.582 247.352C288.582 248.472 289.366 249.208 290.742 249.512L292.47 249.864C293.206 250.024 293.542 250.328 293.542 250.808C293.542 251.432 292.934 251.864 291.974 251.864C290.934 251.864 290.102 251.464 289.99 250.52L288.326 250.872ZM301.829 251.224C301.413 251.496 300.901 251.656 300.485 251.656C299.701 251.656 299.173 251.176 299.173 250.184V246.44H301.893V245.064H299.173V242.6H297.509V245.064H295.797V246.44H297.509V250.296C297.509 252.264 298.661 253.224 300.373 253.224C301.045 253.224 301.589 253.064 302.341 252.616L301.829 251.224ZM311.243 245.064H309.579V245.976C308.891 245.256 307.899 244.84 306.699 244.84C304.619 244.84 302.763 246.536 302.763 249.032C302.763 251.544 304.619 253.224 306.699 253.224C307.899 253.224 308.891 252.808 309.579 252.088V253H311.243V245.064ZM306.971 251.752C305.515 251.752 304.379 250.712 304.379 249.032C304.379 247.368 305.515 246.312 306.971 246.312C308.283 246.312 309.579 247.368 309.579 249.032C309.579 250.712 308.283 251.752 306.971 251.752ZM321.156 245.064H319.492V248.728C319.492 250.728 318.564 251.688 317.14 251.688C315.988 251.688 315.236 250.808 315.236 249.512V245.064H313.572V249.848C313.572 251.848 314.836 253.224 316.756 253.224C317.924 253.224 318.852 252.792 319.492 252.024V253H321.156V245.064ZM328.374 244.968C326.998 244.968 325.99 245.704 325.35 246.76V245.064H323.686V253H325.35V250.2C325.35 248.024 326.342 246.616 328.358 246.616C328.502 246.616 328.694 246.616 328.822 246.632L328.934 245.032C328.726 244.968 328.566 244.968 328.374 244.968ZM338.024 245.064H336.36V245.976C335.672 245.256 334.68 244.84 333.48 244.84C331.4 244.84 329.544 246.536 329.544 249.032C329.544 251.544 331.4 253.224 333.48 253.224C334.68 253.224 335.672 252.808 336.36 252.088V253H338.024V245.064ZM333.752 251.752C332.296 251.752 331.16 250.712 331.16 249.032C331.16 247.368 332.296 246.312 333.752 246.312C335.064 246.312 336.36 247.368 336.36 249.032C336.36 250.712 335.064 251.752 333.752 251.752ZM344.961 244.84C343.777 244.84 342.849 245.272 342.209 246.04V245.064H340.545V253H342.209V249.336C342.209 247.336 343.153 246.376 344.577 246.376C345.713 246.376 346.465 247.24 346.465 248.536V253H348.145V248.2C348.145 246.216 346.865 244.84 344.961 244.84ZM355.235 251.224C354.819 251.496 354.307 251.656 353.891 251.656C353.107 251.656 352.579 251.176 352.579 250.184V246.44H355.299V245.064H352.579V242.6H350.915V245.064H349.203V246.44H350.915V250.296C350.915 252.264 352.067 253.224 353.779 253.224C354.451 253.224 354.995 253.064 355.747 252.616L355.235 251.224ZM361.045 242.28V253H364.789C368.437 253 370.709 250.76 370.709 247.64C370.709 244.52 368.437 242.28 364.789 242.28H361.045ZM362.757 251.448V243.832H364.789C367.397 243.832 368.981 245.416 368.981 247.64C368.981 249.864 367.397 251.448 364.789 251.448H362.757ZM373.693 241.64C373.069 241.64 372.621 242.12 372.621 242.68C372.621 243.272 373.069 243.704 373.693 243.704C374.301 243.704 374.749 243.272 374.749 242.68C374.749 242.12 374.301 241.64 373.693 241.64ZM374.525 253V245.064H372.861V253H374.525ZM381.586 244.84C380.402 244.84 379.474 245.272 378.834 246.04V245.064H377.17V253H378.834V249.336C378.834 247.336 379.778 246.376 381.202 246.376C382.338 246.376 383.09 247.24 383.09 248.536V253H384.77V248.2C384.77 246.216 383.49 244.84 381.586 244.84ZM388.052 241.64C387.428 241.64 386.98 242.12 386.98 242.68C386.98 243.272 387.428 243.704 388.052 243.704C388.66 243.704 389.108 243.272 389.108 242.68C389.108 242.12 388.66 241.64 388.052 241.64ZM388.884 253V245.064H387.22V253H388.884ZM395.946 244.84C394.762 244.84 393.834 245.272 393.194 246.04V245.064H391.53V253H393.194V249.336C393.194 247.336 394.138 246.376 395.562 246.376C396.698 246.376 397.45 247.24 397.45 248.536V253H399.13V248.2C399.13 246.216 397.85 244.84 395.946 244.84ZM409.003 245.064H407.388V245.848C406.78 245.208 405.868 244.856 404.652 244.856C402.62 244.856 400.764 246.472 400.764 248.68C400.764 250.888 402.62 252.536 404.652 252.536C405.868 252.536 406.78 252.184 407.388 251.544V252.056C407.388 253.592 406.396 254.536 404.891 254.536C403.628 254.536 402.972 254.056 402.38 253.128L401.02 254.136C401.66 255.32 402.988 256.04 404.891 256.04C407.372 256.04 409.003 254.664 409.003 252.296V245.064ZM404.924 251.096C403.5 251.096 402.38 250.136 402.38 248.68C402.38 247.208 403.5 246.264 404.924 246.264C406.22 246.264 407.388 247.208 407.388 248.68C407.388 250.136 406.22 251.096 404.924 251.096Z" fill="#1A181E"/>
<rect x="256.5" y="176.5" width="175" height="95" rx="3.5" stroke="#F2F2F2"/>
<defs>
<filter id="filter0_d" x="12" y="16" width="472" height="312" filterUnits="userSpaceOnUse" color-interpolation-filters="sRGB">
<feFlood flood-opacity="0" result="BackgroundImageFix"/>
<feColorMatrix in="SourceAlpha" type="matrix" values="0 0 0 0 0 0 0 0 0 0 0 0 0 0 0 0 0 0 127 0"/>
<feOffset dy="4"/>
<feGaussianBlur stdDeviation="10"/>
<feColorMatrix type="matrix" values="0 0 0 0 0.596078 0 0 0 0 0.596078 0 0 0 0 0.596078 0 0 0 0.2 0"/>
<feBlend mode="normal" in2="BackgroundImageFix" result="effect1_dropShadow"/>
<feBlend mode="normal" in="SourceGraphic" in2="effect1_dropShadow" result="shape"/>
</filter>
<clipPath id="clip0">
<rect width="25.2" height="25.2" fill="white" transform="translate(81.3984 193.4)"/>
</clipPath>
</defs>
</svg>
