<svg width="65" height="65" viewBox="0 0 65 66" fill="none" xmlns="http://www.w3.org/2000/svg">
<path opacity="0.3" d="M53.3278 45.4355C45.0713 57.8312 32.6624 57.9794 19.1205 54.8303C6.86376 51.6168 1.05361 45.6056 4.5787 35.9205C6.73586 25.3051 24.9054 11.8948 42.9074 10.9849C63.0517 9.9668 61.5844 33.0398 53.3278 45.4355Z" fill="#146eb4"/>
<path fill-rule="evenodd" clip-rule="evenodd" d="M12.0001 28.5756C12.0001 17.0416 21.3825 7.65918 32.9166 7.65918C44.4506 7.65918 53.833 17.0416 53.833 28.5756C53.833 40.1096 44.4506 49.4921 32.9166 49.4921C29.6002 49.4921 26.3204 48.6992 23.3809 47.1918L14.3143 49.4376L14.3077 49.4392C14.1666 49.4732 14.018 49.4921 13.8661 49.4921C13.3683 49.4921 12.8832 49.2926 12.5269 48.9255C12.063 48.448 11.8906 47.7609 12.0692 47.1228L14.4925 38.4762C12.8592 35.4418 12.0001 32.0362 12.0001 28.5756ZM32.9166 9.65918C22.4871 9.65918 14.0001 18.1462 14.0001 28.5756C14.0001 31.8328 14.8417 35.0353 16.4367 37.8603L16.6409 38.222L14.0571 47.4409L23.6426 45.0665L23.9821 45.2487C26.7173 46.717 29.7994 47.4921 32.9166 47.4921C43.346 47.4921 51.833 39.0051 51.833 28.5756C51.833 18.1462 43.346 9.65918 32.9166 9.65918ZM13.9612 47.5316C13.961 47.5314 13.9614 47.5318 13.9612 47.5316C13.9357 47.506 13.9012 47.4921 13.8661 47.4921C13.8527 47.4921 13.8444 47.4936 13.84 47.4947L13.8706 47.6216" fill="#212121"/>
<path d="M23.2443 26.1032C23.59 27.9189 24.6161 31.4112 27.6035 34.3993C30.5909 37.3875 34.0823 38.4141 35.8978 38.7598C37.9767 39.1557 41.0273 39.2154 42.5182 37.7242L43.3493 36.8929C43.7688 36.4732 44 35.9151 44 35.3215C44 34.7279 43.7688 34.17 43.3493 33.7504L40.0255 30.4258C39.6057 30.0059 39.048 29.775 38.4545 29.775C37.8611 29.775 37.3033 30.0059 36.8835 30.4258L36.0527 31.2569C35.5451 31.7646 34.5869 31.7668 34.0755 31.2632L30.7602 27.8079C30.7553 27.8028 30.7503 27.7976 30.7452 27.7927C30.2368 27.2842 30.2368 26.4566 30.7452 25.9481L31.576 25.117C32.4445 24.2483 32.4445 22.8427 31.576 21.9743L28.2523 18.6497C27.3862 17.7834 25.9769 17.7834 25.1106 18.6497L24.2797 19.481V19.4808C23.0898 20.6712 22.6932 23.2086 23.2443 26.1032ZM25.7596 20.9613C26.6319 20.1087 26.5853 20.0924 26.6815 20.0924C26.7145 20.0924 26.7475 20.1049 26.7726 20.13C30.2749 23.652 30.1343 23.445 30.1343 23.5459C30.1343 23.5811 30.1215 23.6119 30.0967 23.637L29.2655 24.4681C27.942 25.7919 27.9369 27.9347 29.2571 29.2645L32.5743 32.7219C32.5795 32.7268 32.5844 32.732 32.5896 32.7372C33.9128 34.0607 36.205 34.0651 37.5326 32.7372L38.3635 31.9061C38.4136 31.8559 38.4954 31.8559 38.5456 31.9061C42.0479 35.4278 41.9073 35.2209 41.9073 35.3218C41.9073 35.3572 41.8944 35.3878 41.8696 35.4128L41.0385 36.2439C40.469 36.8135 38.6552 37.1543 36.2893 36.7036C34.7104 36.4026 31.6745 35.511 29.0834 32.9193C26.4924 30.3276 25.601 27.291 25.3003 25.7117C24.8494 23.3452 25.1902 21.5307 25.7596 20.9613Z" fill="#212121"/>
</svg>
